<svg id="Ebene_1" data-name="Ebene 1" xmlns="http://www.w3.org/2000/svg" xmlns:xlink="http://www.w3.org/1999/xlink" viewBox="0 0 4516.61 500"><defs><style>.cls-1{fill:none;}.cls-2{clip-path:url(#clip-path);}.cls-3{fill:#fff;}.cls-4{fill:#7ec291;}.cls-5{clip-path:url(#clip-path-2);}.cls-6{fill:#4d6276;}</style><clipPath id="clip-path"><rect class="cls-1" width="4516.61" height="500"/></clipPath><clipPath id="clip-path-2"><rect class="cls-1" width="4516.61" height="500"/></clipPath></defs><g class="cls-2"><polygon class="cls-3" points="4131.92 72.95 4131.92 497.13 4516.6 426.89 4516.6 3.91 4131.92 72.95"/><polygon class="cls-4" points="4223.87 273.37 4301.19 273.37 4301.19 349.93 4347.34 349.93 4347.34 273.37 4424.66 273.37 4424.66 227.65 4347.34 227.65 4347.34 151.12 4301.19 151.12 4301.19 227.65 4223.87 227.65 4223.87 273.37"/><g class="cls-5"><path class="cls-6" d="M9.91,428.51V73.25H73.26L194.89,351.74h1L318.55,73.25h61.83V428.51H337.81v-298h-1l-128.72,298H182.22L53.5,130.46h-1v298Z"/><path class="cls-6" d="M738.68,73.25V293q0,63.74-32.94,104.12T603.37,437.54q-69.45,0-102.38-40.39T468.05,293V73.25h42.57V287a178.43,178.43,0,0,0,4.57,41.65A118.62,118.62,0,0,0,529.88,364q10.14,16.32,28.89,25.34t44.6,9q25.85,0,44.59-9T676.85,364a118.64,118.64,0,0,0,14.7-35.37A179,179,0,0,0,696.11,287V73.25Z"/><path class="cls-6" d="M826.35,428.51V73.25h42.57V389.37h164.21v39.14Z"/><path class="cls-6" d="M1320.48,73.25v39.14H1201.89V428.51h-42.57V112.39H1040.73V73.25Z"/><path class="cls-6" d="M1370.65,428.51V73.25h42.57V428.51Z"/><path class="cls-6" d="M1789.77,116.41,1729,165.58q-24.83-29.1-67.91-29.1-45.11,0-74.5,32.36t-29.39,82q0,49.19,29.14,81.79t72.22,32.62q48.13,0,74-38.14l65.88,48.68a136.81,136.81,0,0,1-56.5,46.16,177.3,177.3,0,0,1-73.24,15.55q-85.14,0-139.36-51.18t-54.23-135.48q0-84.3,54.23-135.48t139.36-51.18a186.68,186.68,0,0,1,66.9,12.55A123.38,123.38,0,0,1,1789.77,116.41Z"/><path class="cls-6" d="M1841.46,428.51V73.25h79.06V205.72h153.56V73.25h79.06V428.51h-79.06V275H1920.52V428.51Z"/><path class="cls-6" d="M2189.11,428.51,2344.19,73.25h65.38l156.09,355.26h-89.19l-30.92-75.26H2306.18l-29.9,75.26ZM2418.69,287,2374.6,176.62,2331,287Z"/><path class="cls-6" d="M2601.64,428.51V73.25h107.44l152.55,246.88h1V73.25h79.06V428.51H2838.32l-156.6-252.89h-1V428.51Z"/><path class="cls-6" d="M3014.67,428.51V73.25h107.44l152.55,246.88h1V73.25h79.06V428.51H3251.35l-156.6-252.89h-1V428.51Z"/><path class="cls-6" d="M3430.75,428.51V73.25h243.76v72.26h-164.7v66.23h155.58V284H3509.81v72.26h173.83v72.25Z"/><path class="cls-6" d="M3750,428.51V73.25h79.06v283h146.46v72.25Z"/></g></g></svg>