<svg id="Ebene_1" data-name="Ebene 1" xmlns="http://www.w3.org/2000/svg" xmlns:xlink="http://www.w3.org/1999/xlink" viewBox="0 0 3865.31 500"><defs><style>.cls-1{fill:none;}.cls-2{clip-path:url(#clip-path);}.cls-3{fill:#a9a4d1;}.cls-4{fill:#fff;}.cls-5{clip-path:url(#clip-path-2);}</style><clipPath id="clip-path"><rect class="cls-1" width="3865.31" height="500"/></clipPath><clipPath id="clip-path-2"><rect class="cls-1" width="3865.3" height="500"/></clipPath></defs><g class="cls-2"><polygon class="cls-3" points="3476.76 72.95 3476.76 497.13 3861.45 426.89 3861.45 3.91 3476.76 72.95"/><polygon class="cls-4" points="3568.71 273.37 3646.03 273.37 3646.03 349.93 3692.18 349.93 3692.18 273.37 3769.5 273.37 3769.5 227.65 3692.18 227.65 3692.18 151.11 3646.03 151.11 3646.03 227.65 3568.71 227.65 3568.71 273.37"/><g class="cls-5"><path class="cls-4" d="M3.32,428.52V73.26H141.17A180,180,0,0,1,198.69,83a210.81,210.81,0,0,1,56.51,29.61q27.38,19.83,44.6,55.7T317,250.89q0,46.67-17.23,82.54t-44.6,55.7a210.2,210.2,0,0,1-56.51,29.6,180,180,0,0,1-57.52,9.79ZM45.9,112.4v277H127q65.39,0,104.91-34.37t39.53-104.12q0-69.75-39.53-104.12T127,112.4Z"/><path class="cls-4" d="M686.74,384.61q-53,53-134.56,52.94T417.63,384.61q-53-52.94-53-133.72t53-133.73q53-52.93,134.55-52.93t134.56,52.93q52.95,53,53,133.73T686.74,384.61ZM450.06,355.76q39.78,42.66,102.12,42.65T654.3,355.76q39.78-42.64,39.78-104.87T654.3,146q-39.79-42.65-102.12-42.65T450.06,146q-39.8,42.64-39.78,104.87T450.06,355.76Z"/><path class="cls-4" d="M1096.48,119.92l-37,26.6A102.21,102.21,0,0,0,1020,114.4a118.08,118.08,0,0,0-50.17-11q-58.8,0-97.81,43.9T833,250.89q0,62.73,38.51,105.12t98.32,42.4q64.86,0,103.89-49.68l31.93,26.6Q1059,437.55,969.78,437.55q-77.53,0-130-53.19T787.33,250.89q0-79.27,51.7-133T969.78,64.23Q1053.41,64.23,1096.48,119.92Z"/><path class="cls-4" d="M1156.78,428.52V73.26h79.06V205.73H1389.4V73.26h79.06V428.52H1389.4V275H1235.84V428.52Z"/><path class="cls-4" d="M1540.42,428.52V73.26h79.06V428.52Z"/><path class="cls-4" d="M1923,101.36l-54.22,58.71q-9.12-11.55-25.34-17.57a91.47,91.47,0,0,0-31.93-6,74,74,0,0,0-36.49,9.28q-16.72,9.3-16.72,27.35a29.07,29.07,0,0,0,9.12,21.83q9.12,8.79,23.56,14.05t32.19,10a330.42,330.42,0,0,1,35.47,11.8,151.45,151.45,0,0,1,32.18,17.31q14.45,10.29,23.57,28.85t9.12,43.65q0,56.72-39.53,86.81t-98.82,30.11q-72,0-120.62-44.66l56.25-61.22a89.22,89.22,0,0,0,68.93,33.62q21.29,0,38-9.78t16.72-27.35q0-15-12.42-25.59T1800.91,287q-18.77-5-40.55-13a377.37,377.37,0,0,1-40.54-17.56q-18.75-9.53-31.17-29.36t-12.41-47.41q0-54.19,40.29-84.81t96.54-30.6Q1880.47,64.23,1923,101.36Z"/><path class="cls-4" d="M2051.76,428.52v-286H1949.39V73.26H2233.2V142.5H2130.82v286Z"/><path class="cls-4" d="M2308.2,386.37Q2254,335.19,2254,250.89t54.23-135.48q54.23-51.18,139.37-51.18t139.36,51.18q54.22,51.18,54.23,135.48t-54.23,135.48q-54.22,51.18-139.36,51.18T2308.2,386.37Zm58.53-217.77q-30.66,32.11-30.66,82.29t30.66,82.29q30.66,32.11,80.84,32.11t80.83-32.11q30.66-32.12,30.66-82.29T2528.4,168.6q-30.68-32.11-80.83-32.12T2366.73,168.6Z"/><path class="cls-4" d="M2694.87,428.52V73.26h138.87q135.32,0,135.31,107.88,0,38.15-20.27,64.48t-57.27,32.86l91.22,150H2888l-75-142h-39v142Zm79.06-289v80.79h46.63a213.33,213.33,0,0,0,23.06-1,126.24,126.24,0,0,0,20.27-4.27q11.4-3.25,17.23-12t5.83-22.33q0-41.14-61.32-41.15Z"/><path class="cls-4" d="M3111.45,428.52V277L2976.65,73.26H3075l76,133,80.58-133h93.75L3190.52,277V428.52Z"/></g></g></svg>