<svg id="Ebene_1" data-name="Ebene 1" xmlns="http://www.w3.org/2000/svg" xmlns:xlink="http://www.w3.org/1999/xlink" viewBox="0 0 3865.31 500"><defs><style>.cls-1{fill:none;}.cls-2{clip-path:url(#clip-path);}.cls-3{fill:#a9a4d1;}.cls-4{fill:#fff;}.cls-5{clip-path:url(#clip-path-2);}.cls-6{fill:#4d6276;}</style><clipPath id="clip-path"><rect class="cls-1" width="3865.31" height="500"/></clipPath><clipPath id="clip-path-2"><rect class="cls-1" width="3865.3" height="500"/></clipPath></defs><g class="cls-2"><polygon class="cls-3" points="3476.76 72.95 3476.76 497.13 3861.45 426.89 3861.45 3.91 3476.76 72.95"/><polygon class="cls-4" points="3568.71 273.37 3646.03 273.37 3646.03 349.93 3692.18 349.93 3692.18 273.37 3769.5 273.37 3769.5 227.65 3692.18 227.65 3692.18 151.12 3646.03 151.12 3646.03 227.65 3568.71 227.65 3568.71 273.37"/><g class="cls-5"><path class="cls-6" d="M3.32,428.51V73.25H141.17A180,180,0,0,1,198.69,83a210.48,210.48,0,0,1,56.51,29.6q27.38,19.83,44.6,55.7T317,250.88q0,46.67-17.23,82.55t-44.6,55.69a210.52,210.52,0,0,1-56.51,29.61,180,180,0,0,1-57.52,9.78ZM45.89,112.39v277H127q65.39,0,104.91-34.37t39.53-104.12q0-69.74-39.53-104.12T127,112.39Z"/><path class="cls-6" d="M686.73,384.61q-53,52.93-134.55,52.93T417.63,384.61q-53-52.94-53-133.73t53-133.72q53-52.93,134.55-52.94t134.55,52.94q53,53,53,133.72T686.73,384.61ZM450.06,355.75q39.78,42.66,102.12,42.66T654.3,355.75q39.78-42.63,39.78-104.87T654.3,146q-39.79-42.64-102.12-42.65T450.06,146q-39.8,42.66-39.78,104.87T450.06,355.75Z"/><path class="cls-6" d="M1096.48,119.92l-37,26.59A102.17,102.17,0,0,0,1020,114.4a118.09,118.09,0,0,0-50.17-11q-58.8,0-97.81,43.91t-39,103.61q0,62.73,38.52,105.12t98.32,42.41q64.86,0,103.89-49.68l31.93,26.59Q1059,437.56,969.78,437.54q-77.53,0-130-53.18T787.33,250.88q0-79.27,51.7-133T969.78,64.22Q1053.41,64.22,1096.48,119.92Z"/><path class="cls-6" d="M1156.78,428.51V73.25h79.06V205.72H1389.4V73.25h79.06V428.51H1389.4V275H1235.84V428.51Z"/><path class="cls-6" d="M1540.42,428.51V73.25h79.06V428.51Z"/><path class="cls-6" d="M1923,101.35l-54.22,58.71q-9.12-11.53-25.34-17.56a91.24,91.24,0,0,0-31.93-6,73.92,73.92,0,0,0-36.49,9.28q-16.72,9.28-16.72,27.35a29.07,29.07,0,0,0,9.12,21.83q9.12,8.77,23.56,14t32.19,10a328.14,328.14,0,0,1,35.47,11.79,151.9,151.9,0,0,1,32.18,17.31q14.45,10.29,23.57,28.86t9.12,43.65q0,56.72-39.53,86.81t-98.82,30.1q-72,0-120.62-44.65l56.25-61.22a89.22,89.22,0,0,0,68.93,33.62q21.29,0,38-9.79t16.72-27.34q0-15.06-12.42-25.59T1800.91,287q-18.77-5-40.55-13.05a372.56,372.56,0,0,1-40.54-17.56q-18.75-9.52-31.17-29.35t-12.42-47.42q0-54.19,40.29-84.8t96.55-30.61Q1880.47,64.22,1923,101.35Z"/><path class="cls-6" d="M2051.76,428.51v-286H1949.39V73.25H2233.2V142.5H2130.82v286Z"/><path class="cls-6" d="M2308.2,386.36Q2254,335.18,2254,250.88T2308.2,115.4q54.23-51.18,139.36-51.18t139.37,51.18q54.22,51.18,54.23,135.48t-54.23,135.48q-54.22,51.18-139.37,51.18T2308.2,386.36Zm58.53-217.77q-30.66,32.11-30.66,82.29t30.66,82.29q30.66,32.13,80.83,32.12t80.84-32.12q30.66-32.1,30.66-82.29t-30.66-82.29q-30.68-32.1-80.84-32.11T2366.73,168.59Z"/><path class="cls-6" d="M2694.87,428.51V73.25h138.86q135.32,0,135.32,107.89,0,38.13-20.27,64.47t-57.27,32.87l91.22,150H2888l-75-142h-39v142Zm79.06-289v80.78h46.63a210.78,210.78,0,0,0,23.06-1,126.34,126.34,0,0,0,20.27-4.26q11.4-3.27,17.23-12t5.83-22.33q0-41.13-61.32-41.14Z"/><path class="cls-6" d="M3111.46,428.51V277L2976.65,73.25H3075l76,133,80.58-133h93.75L3190.51,277V428.51Z"/></g></g></svg>