<?xml version="1.0" encoding="utf-8"?>
<!-- Generator: Adobe Illustrator 23.0.3, SVG Export Plug-In . SVG Version: 6.00 Build 0)  -->
<svg version="1.1" id="Ebene_1" xmlns="http://www.w3.org/2000/svg" xmlns:xlink="http://www.w3.org/1999/xlink" x="0px" y="0px"
	 viewBox="0 0 714 129.7" style="enable-background:new 0 0 714 129.7;" xml:space="preserve">
<style type="text/css">
	.st0{fill:#FFFFFF;}
	.st1{fill:#87C9D9;}
	.st2{fill:#4D6276;}
</style>
<polygon class="st0" points="713,1 613.2,18.9 613.2,129 713,110.8 713,1 "/>
<polygon class="st1" points="637,70.9 657.1,70.9 657.1,90.8 669,90.8 669,70.9 689.1,70.9 689.1,59.1 669,59.1 669,39.2 
	657.1,39.2 657.1,59.1 637,59.1 637,70.9 "/>
<g>
	<path class="st2" d="M0.9,111.2V19h35.8c4.9,0,9.9,0.8,14.9,2.5c5,1.7,9.9,4.3,14.7,7.7c4.7,3.4,8.6,8.2,11.6,14.5
		c3,6.2,4.5,13.3,4.5,21.4c0,8.1-1.5,15.2-4.5,21.4c-3,6.2-6.8,11-11.6,14.5c-4.7,3.4-9.6,6-14.7,7.7c-5,1.7-10,2.5-14.9,2.5H0.9z
		 M11.9,29.2V101h21c11.3,0,20.4-3,27.2-8.9c6.8-5.9,10.3-15,10.3-27c0-12.1-3.4-21.1-10.3-27c-6.8-5.9-15.9-8.9-27.2-8.9H11.9z"/>
	<path class="st2" d="M178.2,99.8c-9.2,9.2-20.8,13.7-34.9,13.7c-14.1,0-25.8-4.6-34.9-13.7c-9.2-9.2-13.7-20.7-13.7-34.7
		c0-14,4.6-25.5,13.7-34.7c9.2-9.2,20.8-13.7,34.9-13.7c14.1,0,25.8,4.6,34.9,13.7c9.2,9.2,13.7,20.7,13.7,34.7
		C191.9,79.1,187.4,90.6,178.2,99.8z M116.8,92.3c6.9,7.4,15.7,11.1,26.5,11.1s19.6-3.7,26.5-11.1c6.9-7.4,10.3-16.4,10.3-27.2
		c0-10.8-3.4-19.8-10.3-27.2c-6.9-7.4-15.7-11.1-26.5-11.1s-19.6,3.7-26.5,11.1c-6.9,7.4-10.3,16.4-10.3,27.2
		C106.5,75.9,109.9,84.9,116.8,92.3z"/>
	<path class="st2" d="M284.5,31.1l-9.6,6.9c-2.7-3.6-6.1-6.4-10.3-8.3c-4.1-1.9-8.5-2.9-13-2.9c-10.2,0-18.6,3.8-25.4,11.4
		c-6.8,7.6-10.1,16.6-10.1,26.9c0,10.9,3.3,19.9,10,27.3c6.7,7.3,15.2,11,25.5,11c11.2,0,20.2-4.3,27-12.9l8.3,6.9
		c-8.1,10.8-19.8,16.1-35.2,16.1c-13.4,0-24.7-4.6-33.7-13.8c-9.1-9.2-13.6-20.7-13.6-34.6c0-13.7,4.5-25.2,13.4-34.5
		c8.9-9.3,20.3-13.9,33.9-13.9C266.1,16.7,277.1,21.5,284.5,31.1z"/>
	<path class="st2" d="M309.2,100.3c-9.4-8.9-14.1-20.6-14.1-35.2c0-14.6,4.7-26.3,14.1-35.2c9.4-8.9,21.4-13.3,36.2-13.3
		s26.8,4.4,36.2,13.3c9.4,8.9,14.1,20.6,14.1,35.2c0,14.6-4.7,26.3-14.1,35.2c-9.4,8.9-21.4,13.3-36.2,13.3S318.6,109.1,309.2,100.3
		z M324.4,43.7c-5.3,5.6-8,12.7-8,21.4c0,8.7,2.7,15.8,8,21.4c5.3,5.6,12.3,8.3,21,8.3c8.7,0,15.7-2.8,21-8.3c5.3-5.6,8-12.7,8-21.4
		c0-8.7-2.7-15.8-8-21.4c-5.3-5.6-12.3-8.3-21-8.3C336.7,35.4,329.7,38.2,324.4,43.7z"/>
	<path class="st2" d="M488.1,19v56.6c0,11.3-3.4,20.4-10.2,27.4c-6.8,7-16.5,10.5-29,10.5c-12.5,0-22.2-3.5-29.1-10.5
		c-6.8-7-10.3-16.1-10.3-27.4V19h20.5v55.9c0,5.7,1.8,10.5,5.3,14.3c3.6,3.8,8,5.7,13.5,5.7c5.3,0,9.8-1.9,13.3-5.7
		c3.6-3.8,5.3-8.5,5.3-14.2V19H488.1z"/>
	<path class="st2" d="M525,111.2V37h-26.6V19h73.6v18h-26.6v74.2H525z"/>
</g>
<g>
</g>
<g>
</g>
<g>
</g>
<g>
</g>
<g>
</g>
<g>
</g>
<g>
</g>
<g>
</g>
<g>
</g>
<g>
</g>
<g>
</g>
<g>
</g>
<g>
</g>
<g>
</g>
<g>
</g>
</svg>
