<svg id="Ebene_1" data-name="Ebene 1" xmlns="http://www.w3.org/2000/svg" xmlns:xlink="http://www.w3.org/1999/xlink" viewBox="0 0 2765.14 500"><defs><style>.cls-1{fill:none;}.cls-2{clip-path:url(#clip-path);}.cls-3{fill:#87c8d9;}.cls-4{fill:#fff;}</style><clipPath id="clip-path"><rect class="cls-1" width="2765.14" height="500"/></clipPath></defs><g class="cls-2"><polygon class="cls-3" points="2377.47 73.52 2377.47 500 2382.93 500 2765.14 430.2 2765.14 3.94 2377.47 73.52"/><polygon class="cls-4" points="2470.13 275.5 2548.05 275.5 2548.05 352.65 2594.56 352.65 2594.56 275.5 2672.48 275.5 2672.48 229.41 2594.56 229.41 2594.56 152.29 2548.05 152.29 2548.05 229.41 2470.13 229.41 2470.13 275.5"/><g class="cls-2"><path class="cls-4" d="M-.53,431.85v-358H138.39a181.55,181.55,0,0,1,58,9.86,212.27,212.27,0,0,1,56.94,29.83q27.58,20,44.95,56.13t17.36,83.19q0,47-17.36,83.18T253.3,392.15A212.3,212.3,0,0,1,196.36,422a181.55,181.55,0,0,1-58,9.86Zm42.9-318.58V392.4h81.72q65.88,0,105.72-34.64t39.84-104.92q0-70.29-39.84-104.93T124.09,113.27Z"/><path class="cls-4" d="M688.19,387.6Q634.81,441,552.59,441T417,387.6q-53.37-53.34-53.37-134.76T417,118.08q53.37-53.35,135.6-53.35t135.6,53.35q53.35,53.36,53.37,134.76T688.19,387.6ZM449.68,358.52q40.08,43,102.91,43t102.91-43q40.1-43,40.09-105.68T655.5,147.15q-40.1-43-102.91-43t-102.91,43q-40.11,43-40.1,105.69T449.68,358.52Z"/><path class="cls-4" d="M1101.11,120.86l-37.28,26.8A103,103,0,0,0,1024,115.29a118.93,118.93,0,0,0-50.56-11.12q-59.25,0-98.57,44.25T835.53,252.84q0,63.21,38.82,105.94t99.08,42.72q65.37,0,104.7-50.06l32.18,26.8Q1063.32,441,973.43,441q-78.13,0-131-53.6T789.57,252.84q0-79.89,52.09-134t131.77-54.1Q1057.7,64.73,1101.11,120.86Z"/><path class="cls-4" d="M1197.13,389.37q-54.66-51.58-54.65-136.53t54.65-136.53q54.64-51.59,140.45-51.58T1478,116.31q54.65,51.57,54.65,136.53T1478,389.37q-54.66,51.57-140.45,51.58T1197.13,389.37Zm59-219.46q-30.91,32.35-30.9,82.93t30.9,82.93q30.89,32.37,81.46,32.36T1419,335.77q30.9-32.36,30.9-82.93T1419,169.91q-30.91-32.35-81.46-32.37T1256.12,169.91Z"/><path class="cls-4" d="M1891.71,73.83v220q0,65.73-39.58,106.44T1739.51,441q-73,0-112.87-40.71T1586.81,293.8v-220h79.67V290.76q0,33.38,20.68,55.37t52.35,22q31.15,0,51.84-22.25T1812,290.76V73.83Z"/><path class="cls-4" d="M2035.23,431.85V143.61H1932.06V73.83h286v69.78H2114.9V431.85Z"/></g></g></svg>