<svg id="Ebene_1" data-name="Ebene 1" xmlns="http://www.w3.org/2000/svg" xmlns:xlink="http://www.w3.org/1999/xlink" viewBox="0 0 2765.14 500"><defs><style>.cls-1{fill:none;}.cls-2{clip-path:url(#clip-path);}.cls-3{fill:#87c8d9;}.cls-4{fill:#fff;}.cls-5{fill:#4d6276;}</style><clipPath id="clip-path"><rect class="cls-1" width="2765.14" height="500"/></clipPath></defs><g class="cls-2"><polygon class="cls-3" points="2377.47 73.52 2377.47 500 2382.93 500 2765.14 430.2 2765.14 3.94 2377.47 73.52"/><polygon class="cls-4" points="2470.13 275.49 2548.05 275.49 2548.05 352.65 2594.56 352.65 2594.56 275.49 2672.48 275.49 2672.48 229.41 2594.56 229.41 2594.56 152.29 2548.05 152.29 2548.05 229.41 2470.13 229.41 2470.13 275.49"/><g class="cls-2"><path class="cls-5" d="M-.53,431.84v-358H138.39a181.17,181.17,0,0,1,58,9.86,212.32,212.32,0,0,1,57,29.83q27.58,20,44.94,56.13t17.37,83.18q0,47-17.37,83.19T253.3,392.15a212,212,0,0,1-57,29.83,181.44,181.44,0,0,1-58,9.86Zm42.9-318.57V392.4h81.72q65.88,0,105.72-34.64t39.83-104.93q0-70.28-39.83-104.92T124.09,113.27Z"/><path class="cls-5" d="M688.19,387.6Q634.81,441,552.59,440.94T417,387.6q-53.39-53.36-53.37-134.77T417,118.07q53.36-53.34,135.6-53.35t135.6,53.35q53.35,53.35,53.37,134.76T688.19,387.6ZM449.68,358.52q40.08,43,102.91,43t102.91-43q40.08-43,40.09-105.69T655.5,147.15q-40.1-43-102.91-43t-102.91,43q-40.11,43-40.1,105.68T449.68,358.52Z"/><path class="cls-5" d="M1101.11,120.85l-37.28,26.8A103,103,0,0,0,1024,115.29a119,119,0,0,0-50.56-11.12q-59.25,0-98.57,44.24T835.53,252.83q0,63.22,38.82,105.94t99.08,42.73q65.37,0,104.7-50.06l32.17,26.8q-47,62.7-136.87,62.7-78.15,0-131-53.6T789.57,252.83q0-79.89,52.09-134T973.43,64.72Q1057.7,64.72,1101.11,120.85Z"/><path class="cls-5" d="M1197.12,389.37q-54.64-51.58-54.64-136.54t54.64-136.53q54.64-51.57,140.46-51.58T1478,116.3q54.65,51.58,54.64,136.53T1478,389.37q-54.66,51.57-140.45,51.57T1197.12,389.37Zm59-219.47q-30.9,32.37-30.89,82.93t30.89,82.93q30.9,32.37,81.47,32.37T1419,335.76q30.89-32.36,30.9-82.93T1419,169.9q-30.91-32.35-81.46-32.36T1256.11,169.9Z"/><path class="cls-5" d="M1891.71,73.83v220q0,65.74-39.58,106.45t-112.62,40.7q-73,0-112.87-40.7T1586.8,293.79v-220h79.68V290.76q0,33.38,20.68,55.37t52.35,22q31.15,0,51.84-22.25T1812,290.76V73.83Z"/><path class="cls-5" d="M2035.22,431.84V143.61H1932.06V73.83h286v69.78H2114.9V431.84Z"/></g></g></svg>