<svg id="Ebene_1" data-name="Ebene 1" xmlns="http://www.w3.org/2000/svg" xmlns:xlink="http://www.w3.org/1999/xlink" viewBox="0 0 4097.93 500"><defs><style>.cls-1{fill:none;}.cls-2{clip-path:url(#clip-path);}.cls-3{fill:#00aec7;}.cls-4{fill:#48647b;}</style><clipPath id="clip-path"><rect class="cls-1" width="4097.93" height="500"/></clipPath></defs><g class="cls-2"><polygon class="cls-3" points="346.14 12.11 346.14 342.7 344.73 342.7 142.47 12.11 0 12.11 0 487.91 104.85 487.91 104.85 149.18 106.14 149.18 313.8 487.91 450.96 487.91 450.96 12.11 346.14 12.11"/><path class="cls-3" d="M686.34,298.39l57.81-147.86,58.44,147.86ZM703.85,12.11,498.11,487.91H613.73l39.68-100.79H838.28l41,100.79H997.52l-207-475.8Z"/><polygon class="cls-3" points="1194.81 323.9 1193.4 323.9 1075.81 12.11 956.14 12.11 1146.39 487.91 1230.38 487.91 1426.64 12.11 1314.41 12.11 1194.81 323.9"/><rect class="cls-3" x="1474.61" y="12.1" width="104.82" height="475.8"/><rect class="cls-3" x="2058.75" y="12.1" width="104.87" height="475.78"/><g class="cls-2"><path class="cls-3" d="M2490,403.21c-89.4,0-147.83-64.5-147.83-153.23S2400.6,96.72,2490,96.72,2638,161.29,2638,250,2579.46,403.21,2490,403.21M2490,0c-148.49,0-256.69,97.42-256.69,250S2341.51,500,2490,500s256.76-97.42,256.76-250S2638.55,0,2490,0"/><polygon class="cls-3" points="3163.72 342.7 3162.3 342.7 2960.05 12.12 2817.56 12.12 2817.56 487.88 2922.42 487.88 2922.42 149.18 2923.75 149.18 3131.42 487.88 3268.55 487.88 3268.55 12.12 3163.72 12.12 3163.72 342.7"/><path class="cls-3" d="M3624.46,278.39C3660.15,247.31,3686,213,3686,152.79,3686,58.94,3619.85,12,3534.6,12c-91.9,0-159.32,46.91-165.24,143.49l99.12,7.26c2.65-33.81,24.43-59.58,60.82-59.58,30.36,0,57.54,19.2,57.54,50.91,0,28.42-23.2,48.23-41.69,65.48L3363.4,382.85V487.91H3690V400.62H3482.39Z"/><path class="cls-3" d="M3941.27,149.51h1.32V310.79H3837.52ZM3929.41,20,3738.35,310.79v83.29h204.24v93.83h95.17V394.08h60.17V310.79h-60.17V20Z"/><path class="cls-4" d="M1818.36,206.5c-31.12-.31-50.48-20.93-50.48-53.78,0-32.67,20.1-53.79,51.22-53.79h20.1l0-86.86h-20.09c-84.73,0-143.9,57.85-143.9,140.65s59.17,140.67,144.64,140.67c31.14.32,50.47,20.94,50.47,53.79,0,32.7-20.09,53.81-51.19,53.81H1799v86.87h20.1c84.73,0,143.9-57.86,143.9-140.68S1903.83,206.5,1818.36,206.5"/></g></g></svg>