<svg id="Ebene_1" data-name="Ebene 1" xmlns="http://www.w3.org/2000/svg" xmlns:xlink="http://www.w3.org/1999/xlink" viewBox="0 0 4290.23 500"><defs><style>.cls-1{fill:none;}.cls-2{clip-path:url(#clip-path);}.cls-3{fill:#f18a92;}.cls-4{fill:#fff;}.cls-5{clip-path:url(#clip-path-2);}.cls-6{fill:#4d6276;}</style><clipPath id="clip-path"><rect class="cls-1" x="1" width="4289.23" height="500"/></clipPath><clipPath id="clip-path-2"><rect class="cls-1" x="1" width="4289.23" height="500"/></clipPath></defs><g class="cls-2"><polygon class="cls-3" points="3909.4 72.95 3909.4 497.13 4290.23 427.59 4290.23 4.6 3909.4 72.95"/><polygon class="cls-4" points="4001.35 273.37 4078.67 273.37 4078.67 349.93 4124.82 349.93 4124.82 273.37 4202.14 273.37 4202.14 227.65 4124.82 227.65 4124.82 151.12 4078.67 151.12 4078.67 227.65 4001.35 227.65 4001.35 273.37"/><g class="cls-5"><path class="cls-6" d="M314.69,119.92l-37,26.59a102.17,102.17,0,0,0-39.53-32.11,118.12,118.12,0,0,0-50.17-11q-58.8,0-97.82,43.91t-39,103.61q0,62.73,38.52,105.12T188,398.41q64.86,0,103.89-49.68l31.93,26.59Q277.19,437.56,188,437.54q-77.55,0-130-53.18T5.55,250.88q0-79.27,51.69-133T188,64.22Q271.61,64.22,314.69,119.92Z"/><path class="cls-6" d="M341.55,428.51,499.67,73.25h40L692.25,428.51H642.59L606.1,341.2H426.69l-37,87.31ZM589.88,302.06l-71-174.61h-1l-74.5,174.61Z"/><path class="cls-6" d="M945.14,105.87l-35,30.11q-20.28-32.61-65.37-32.62-31.44,0-54,15t-22.55,44.66q0,24.09,16,37.89t59.55,27.34q26.36,8.55,41.05,14.55t32.44,18.07q17.73,12,25.84,29.85t8.11,42.91q0,50.18-36.74,77T825,437.54a167.3,167.3,0,0,1-63.6-12q-29.65-12-46.88-37.13L751,358.76A73.93,73.93,0,0,0,783,388.12a99.09,99.09,0,0,0,44.59,10.29,93.05,93.05,0,0,0,54-16.56q24.06-16.56,24.07-45.16,0-15.06-4.31-25.09t-17.48-18.32a141.66,141.66,0,0,0-24.33-12.54q-11.15-4.26-38.51-13.3-6.09-2-9.13-3-43.59-14-66.39-35.63t-22.8-62.22q0-48.66,35.73-75.51T844.8,64.22Q909.15,64.22,945.14,105.87Z"/><path class="cls-6" d="M1021.67,428.51V73.25h42.57V223.79h191.57V73.25h42.57V428.51h-42.57V262.93H1064.24V428.51Z"/><path class="cls-6" d="M1379.46,428.51V73.25h138.86q135.32,0,135.32,107.89,0,38.13-20.27,64.47t-57.27,32.87l91.22,150h-94.77l-75-142h-39v142Zm79.06-289v80.78h46.63a210.78,210.78,0,0,0,23.06-1,126.34,126.34,0,0,0,20.27-4.26q11.4-3.27,17.23-12t5.83-22.33q0-41.13-61.33-41.14Z"/><path class="cls-6" d="M1710.9,428.51V73.25h243.77v72.26H1790v66.23h155.59V284H1790v72.26h173.83v72.25Z"/><path class="cls-6" d="M2352,217.77V403.42q-65.88,34.14-150.52,34.12-85.14,0-139.36-51.18t-54.23-135.48q0-84.3,54.23-135.48t139.36-51.18q93.26,0,142.92,45.66l-55.75,60.22q-32.43-33.61-87.17-33.62-50.16,0-80.83,32.11T2090,250.88q0,50.19,30.66,82.29t80.83,32.12q42.57,0,74.5-17.56V290h-64.36V217.77Z"/><path class="cls-6" d="M2420.41,428.51V73.25h79.06V428.51Z"/><path class="cls-6" d="M2803,101.35l-54.22,58.71q-9.14-11.53-25.34-17.56a91.47,91.47,0,0,0-31.93-6,74,74,0,0,0-36.49,9.28q-16.73,9.3-16.72,27.35a29,29,0,0,0,9.12,21.82q9.12,8.79,23.56,14t32.18,10a327.57,327.57,0,0,1,35.48,11.79,151.9,151.9,0,0,1,32.18,17.31q14.45,10.29,23.57,28.86t9.12,43.65q0,56.72-39.53,86.81t-98.82,30.1q-72,0-120.62-44.65l56.25-61.22a89.22,89.22,0,0,0,68.93,33.62q21.28,0,38-9.79t16.72-27.34q0-15.06-12.42-25.59T2680.9,287q-18.77-5-40.55-13.05a372.56,372.56,0,0,1-40.54-17.56q-18.75-9.52-31.17-29.35t-12.42-47.42q0-54.19,40.29-84.8t96.55-30.61Q2760.46,64.22,2803,101.35Z"/><path class="cls-6" d="M2931.75,428.51v-286H2829.38V73.25h283.81V142.5H3010.81v286Z"/><path class="cls-6" d="M3156.26,428.51V73.25H3400v72.26H3235.32v66.23H3390.9V284H3235.32v72.26h173.83v72.25Z"/><path class="cls-6" d="M3472.49,428.51V73.25h138.86q135.32,0,135.32,107.89,0,38.13-20.27,64.47t-57.27,32.87l91.22,150h-94.77l-75-142h-39v142Zm79.06-289v80.78h46.63a210.78,210.78,0,0,0,23.06-1,126.34,126.34,0,0,0,20.27-4.26q11.4-3.27,17.23-12t5.83-22.33q0-41.13-61.32-41.14Z"/></g></g></svg>