<svg id="Ebene_1" data-name="Ebene 1" xmlns="http://www.w3.org/2000/svg" xmlns:xlink="http://www.w3.org/1999/xlink" viewBox="0 0 4289.18 500"><defs><style>.cls-1{fill:none;}.cls-2{clip-path:url(#clip-path);}.cls-3{fill:#f18a92;}.cls-4{fill:#fff;}.cls-5{clip-path:url(#clip-path-2);}</style><clipPath id="clip-path"><rect class="cls-1" x="-0.05" y="0.22" width="4289.28" height="499.56"/></clipPath><clipPath id="clip-path-2"><rect class="cls-1" x="-0.05" y="0.22" width="4289.28" height="499.56"/></clipPath></defs><g class="cls-2"><polygon class="cls-3" points="3908.74 73.11 3908.74 496.92 4289.23 427.43 4289.23 4.82 3908.74 73.11"/><polygon class="cls-4" points="4000.6 273.35 4077.85 273.35 4077.85 349.84 4123.96 349.84 4123.96 273.35 4201.21 273.35 4201.21 227.67 4123.96 227.67 4123.96 151.2 4077.85 151.2 4077.85 227.67 4000.6 227.67 4000.6 273.35"/><g class="cls-5"><path class="cls-4" d="M313.37,120l-37,26.57a102.16,102.16,0,0,0-39.49-32.09,118,118,0,0,0-50.13-11q-58.74,0-97.73,43.87t-39,103.53q0,62.67,38.48,105t98.23,42.36q64.8,0,103.8-49.63l31.9,26.57q-46.59,62.16-135.7,62.16-77.48,0-129.88-53.14T4.49,250.89q0-79.21,51.65-132.86T186.78,64.39Q270.33,64.39,313.37,120Z"/><path class="cls-4" d="M340.2,428.36l158-355h40l152.41,355H641l-36.46-87.23H425.26l-37,87.23ZM588.31,302,517.42,127.56h-1L442,302Z"/><path class="cls-4" d="M943.25,106l-34.93,30.08Q888.05,103.5,843,103.49q-31.41,0-53.93,15t-22.53,44.62q0,24.07,16,37.85T842,228.33q26.32,8.52,41,14.53t32.4,18.05q17.73,12,25.83,29.83t8.1,42.87q0,50.13-36.71,76.95t-89.37,26.82a167.27,167.27,0,0,1-63.55-12q-29.61-12-46.83-37.1l36.45-29.58A73.9,73.9,0,0,0,781.22,388a99.09,99.09,0,0,0,44.56,10.28,93,93,0,0,0,53.93-16.55q24-16.55,24-45.12,0-15-4.31-25.06T882,293.25a142.63,142.63,0,0,0-24.31-12.54q-11.14-4.24-38.48-13.28-6.08-2-9.12-3-43.55-14-66.33-35.59T721,166.66q0-48.61,35.7-75.45T843,64.39Q907.29,64.39,943.25,106Z"/><path class="cls-4" d="M1019.71,428.36v-355h42.53v150.4h191.4V73.41h42.53v355h-42.53V262.92h-191.4V428.36Z"/><path class="cls-4" d="M1377.19,428.36v-355h138.74q135.19,0,135.19,107.79,0,38.1-20.25,64.42t-57.22,32.84l91.14,149.9h-94.68l-74.94-141.88h-39V428.36Zm79-288.77V220.3h46.58a210.25,210.25,0,0,0,23-1,124.94,124.94,0,0,0,20.26-4.26q11.39-3.25,17.21-12t5.82-22.31q0-41.1-61.26-41.11Z"/><path class="cls-4" d="M1708.34,428.36v-355h243.55v72.2H1787.33v66.17h155.45V284H1787.33v72.2H1961v72.19Z"/><path class="cls-4" d="M2348.86,217.8V403.29q-65.84,34.09-150.39,34.09-85.06,0-139.24-51.13t-54.18-135.36q0-84.22,54.18-135.36t139.24-51.14q93.17,0,142.79,45.62l-55.69,60.16q-32.42-33.58-87.1-33.59-50.11,0-80.76,32.09t-30.63,82.22q0,50.13,30.63,82.21t80.76,32.09q42.54,0,74.44-17.55V290H2208.6V217.8Z"/><path class="cls-4" d="M2417.22,428.36v-355h79v355Z"/><path class="cls-4" d="M2799.5,101.49l-54.18,58.65q-9.11-11.52-25.32-17.54a91.26,91.26,0,0,0-31.89-6,73.91,73.91,0,0,0-36.46,9.28q-16.71,9.27-16.71,27.32a29.05,29.05,0,0,0,9.11,21.81q9.12,8.77,23.55,14t32.15,10a329.94,329.94,0,0,1,35.45,11.78,151.63,151.63,0,0,1,32.15,17.3q14.43,10.27,23.54,28.83t9.12,43.61q0,56.65-39.5,86.73t-98.73,30.08q-71.91,0-120.52-44.62l56.21-61.16a89.11,89.11,0,0,0,68.86,33.59q21.27,0,38-9.78T2721,328.09q0-15-12.41-25.57T2677.47,287q-18.73-5-40.51-13a376.63,376.63,0,0,1-40.5-17.55q-18.75-9.51-31.14-29.33t-12.41-47.37q0-54.15,40.26-84.73t96.45-30.58Q2757,64.39,2799.5,101.49Z"/><path class="cls-4" d="M2928.11,428.36V142.6H2825.83V73.41h283.55V142.6H3007.1V428.36Z"/><path class="cls-4" d="M3152.41,428.36v-355H3396v72.2H3231.4v66.17h155.45V284H3231.4v72.2h173.68v72.19Z"/><path class="cls-4" d="M3468.37,428.36v-355h138.74q135.19,0,135.19,107.79,0,38.1-20.25,64.42t-57.22,32.84L3756,428.36h-94.69l-74.93-141.88h-39V428.36Zm79-288.77V220.3h46.58a210.25,210.25,0,0,0,23-1,124.84,124.84,0,0,0,20.25-4.26q11.4-3.25,17.22-12t5.82-22.31q0-41.1-61.27-41.11Z"/></g></g></svg>