<svg id="Ebene_1" data-name="Ebene 1" xmlns="http://www.w3.org/2000/svg" xmlns:xlink="http://www.w3.org/1999/xlink" viewBox="0 0 4289.23 500"><defs><style>.cls-1{fill:none;}.cls-2{clip-path:url(#clip-path);}.cls-3{fill:#fff;}.cls-4{fill:#f18a92;}.cls-5{clip-path:url(#clip-path-2);}.cls-6{fill:#4d6276;}</style><clipPath id="clip-path"><rect class="cls-1" x="0.03" y="-0.22" width="4289.18" height="500.44"/></clipPath><clipPath id="clip-path-2"><rect class="cls-1" x="0.03" y="-0.22" width="4289.18" height="500.44"/></clipPath></defs><g class="cls-2"><polygon class="cls-3" points="3908.04 72.79 3908.04 497.35 4289.2 427.75 4289.2 4.38 3908.04 72.79"/><polygon class="cls-4" points="4000.06 273.39 4077.45 273.39 4077.45 350.02 4123.64 350.02 4123.64 273.39 4201.03 273.39 4201.03 227.63 4123.64 227.63 4123.64 151.03 4077.45 151.03 4077.45 227.63 4000.06 227.63 4000.06 273.39"/><g class="cls-5"><path class="cls-6" d="M314,119.8l-37,26.62a102.34,102.34,0,0,0-39.56-32.14,118.17,118.17,0,0,0-50.22-11q-58.84,0-97.9,43.94T50.23,250.88q0,62.79,38.55,105.22t98.41,42.44q64.92,0,104-49.72l32,26.61q-46.68,62.28-135.94,62.28-77.61,0-130.11-53.24T4.58,250.88q0-79.33,51.74-133.09T187.19,64.06Q270.89,64.06,314,119.8Z"/><path class="cls-6" d="M340.88,428.67,499.14,73.1h40.07L691.89,428.67H642.18l-36.52-87.39H426.1l-37,87.39ZM589.43,302.11l-71-174.77h-1L442.84,302.11Z"/><path class="cls-6" d="M945,105.74l-35,30.14q-20.29-32.65-65.44-32.65-31.46,0-54,15.07T768,163q0,24.1,16,37.91t59.6,27.37q26.37,8.55,41.08,14.57t32.47,18.08q17.75,12,25.87,29.88t8.11,42.94q0,50.22-36.77,77.09t-89.53,26.87a167.62,167.62,0,0,1-63.66-12q-29.67-12.06-46.92-37.17l36.52-29.63a74,74,0,0,0,32,29.38,99.13,99.13,0,0,0,44.63,10.3,93.18,93.18,0,0,0,54-16.58q24.07-16.57,24.09-45.2,0-15.06-4.31-25.11t-17.5-18.33a141.89,141.89,0,0,0-24.35-12.55q-11.16-4.27-38.55-13.31l-9.13-3Q768,250.39,745.15,228.79t-22.82-62.28q0-48.7,35.76-75.58t86.48-26.87Q909,64.06,945,105.74Z"/><path class="cls-6" d="M1021.6,428.67V73.1h42.61V223.76H1256V73.1h42.6V428.67H1256V262.94H1064.21V428.67Z"/><path class="cls-6" d="M1379.71,428.67V73.1h139q135.43,0,135.43,108,0,38.16-20.29,64.53t-57.32,32.9l91.31,150.16H1573L1497.9,286.54h-39.06V428.67Zm79.13-289.28v80.86h46.67a210.68,210.68,0,0,0,23.08-1,124.5,124.5,0,0,0,20.29-4.27q11.41-3.25,17.25-12.05t5.83-22.35q0-41.17-61.38-41.18Z"/><path class="cls-6" d="M1711.45,428.67V73.1h244v72.32H1790.58v66.29H1946.3V284H1790.58v72.32h174v72.32Z"/><path class="cls-6" d="M2353.11,217.74V403.56q-66,34.15-150.66,34.15-85.22,0-139.49-51.23t-54.27-135.6q0-84.37,54.27-135.6t139.49-51.22q93.33,0,143.05,45.7L2289.7,170q-32.46-33.65-87.25-33.65-50.2,0-80.9,32.14t-30.69,82.36q0,50.24,30.69,82.37t80.9,32.14q42.62,0,74.57-17.58V290.06H2212.6V217.74Z"/><path class="cls-6" d="M2421.58,428.67V73.1h79.13V428.67Z"/><path class="cls-6" d="M2804.55,101.22,2750.27,160q-9.12-11.55-25.36-17.58a91.63,91.63,0,0,0-32-6,74.07,74.07,0,0,0-36.52,9.29q-16.74,9.3-16.74,27.37a29.12,29.12,0,0,0,9.13,21.85q9.13,8.79,23.59,14.06t32.21,10a331.06,331.06,0,0,1,35.51,11.8,152.19,152.19,0,0,1,32.21,17.33q14.46,10.31,23.58,28.88t9.13,43.69q0,56.76-39.56,86.89t-98.91,30.13q-72,0-120.73-44.7l56.31-61.27a89.33,89.33,0,0,0,69,33.65q21.3,0,38.05-9.79t16.73-27.37q0-15.08-12.42-25.62T2682.3,287q-18.77-5-40.58-13.05a378.12,378.12,0,0,1-40.58-17.58Q2582.38,246.87,2570,227t-12.43-47.46q0-54.24,40.33-84.88t96.63-30.63Q2761.93,64.06,2804.55,101.22Z"/><path class="cls-6" d="M2933.38,428.67V142.4H2830.92V73.1H3115v69.3H3012.51V428.67Z"/><path class="cls-6" d="M3158.09,428.67V73.1h244v72.32H3237.22v66.29h155.72V284H3237.22v72.32h174v72.32Z"/><path class="cls-6" d="M3474.6,428.67V73.1h139q135.45,0,135.44,108,0,38.16-20.29,64.53t-57.32,32.9l91.3,150.16h-94.85l-75.07-142.13h-39.06V428.67Zm79.13-289.28v80.86h46.67a210.68,210.68,0,0,0,23.08-1,124.5,124.5,0,0,0,20.29-4.27q11.42-3.25,17.24-12.05t5.84-22.35q0-41.17-61.38-41.18Z"/></g></g></svg>