<svg id="Ebene_1" data-name="Ebene 1" xmlns="http://www.w3.org/2000/svg" xmlns:xlink="http://www.w3.org/1999/xlink" viewBox="0 0 2913.4 500"><defs><style>.cls-1{fill:none;}.cls-2{clip-path:url(#clip-path);}.cls-3{fill:#cea7a5;}.cls-4{fill:#fff;}.cls-5{fill:#4d6276;}</style><clipPath id="clip-path"><rect class="cls-1" width="2913.4" height="500"/></clipPath></defs><g class="cls-2"><polygon class="cls-3" points="2528.72 72.95 2528.72 497.13 2913.4 426.89 2913.4 3.91 2528.72 72.95"/><polygon class="cls-4" points="2620.66 273.37 2697.98 273.37 2697.98 349.93 2744.13 349.93 2744.13 273.37 2821.45 273.37 2821.45 227.65 2744.13 227.65 2744.13 151.12 2697.98 151.12 2697.98 227.65 2620.66 227.65 2620.66 273.37"/><g class="cls-2"><path class="cls-5" d="M3.32,428.51V73.25H141.17A180,180,0,0,1,198.69,83a210.48,210.48,0,0,1,56.51,29.6q27.38,19.83,44.6,55.7T317,250.88q0,46.67-17.23,82.55t-44.6,55.69a210.52,210.52,0,0,1-56.51,29.61,180,180,0,0,1-57.52,9.78ZM45.9,112.39v277H127q65.39,0,104.91-34.37t39.53-104.12q0-69.74-39.53-104.12T127,112.39Z"/><path class="cls-5" d="M343.89,428.51,502,73.25h40L694.59,428.51H644.92L608.44,341.2H429l-37,87.31ZM592.22,302.06l-71-174.61h-1l-74.5,174.61Z"/><path class="cls-5" d="M983,73.25v39.14H864.36V428.51H821.79V112.39H703.2V73.25Z"/><path class="cls-5" d="M991.56,428.51,1149.68,73.25h40l152.55,355.26H1292.6l-36.49-87.31h-179.4l-37,87.31Zm248.33-126.45-71-174.61h-1l-74.5,174.61Z"/><path class="cls-5" d="M1677.26,116.41l-60.81,49.17q-24.84-29.1-67.91-29.1-45.12,0-74.5,32.36t-29.4,82q0,49.19,29.14,81.79T1546,365.29q48.15,0,74-38.14l65.89,48.68A136.77,136.77,0,0,1,1629.37,422a177.29,177.29,0,0,1-73.23,15.55q-85.14,0-139.37-51.18t-54.23-135.48q0-84.3,54.23-135.48t139.37-51.18A186.67,186.67,0,0,1,1623,76.77,123.38,123.38,0,0,1,1677.26,116.41Z"/><path class="cls-5" d="M1692,428.51,1847,73.25h65.37L2068.5,428.51h-89.19l-30.91-75.26H1809l-29.9,75.26ZM1921.53,287l-44.09-110.39L1833.86,287Z"/><path class="cls-5" d="M2104.49,428.51V73.25h133.28q136.32,0,136.33,107.89Q2374.1,290,2241.32,290h-57.77V428.51Zm79.06-289v84.3h52.7q55.74,0,55.75-42.65,0-41.65-67.91-41.65Z"/></g></g></svg>