<svg id="Ebene_1" data-name="Ebene 1" xmlns="http://www.w3.org/2000/svg" viewBox="0 0 1058.11 127.98"><defs><style>.cls-1{fill:#cda485;}.cls-2{fill:#fff;}.cls-3{fill:#4d6276;}</style></defs><polygon class="cls-1" points="1058.11 0 958.29 17.91 958.29 127.98 1058.11 109.75 1058.11 0 1058.11 0"/><polygon class="cls-2" points="982.15 69.92 1002.21 69.92 1002.21 89.78 1014.18 89.78 1014.18 69.92 1034.25 69.92 1034.25 58.05 1014.18 58.05 1014.18 38.2 1002.21 38.2 1002.21 58.05 982.15 58.05 982.15 69.92 982.15 69.92"/><path class="cls-3" d="M.86,111.19V19H36.63a46.56,46.56,0,0,1,14.93,2.54,54.46,54.46,0,0,1,14.66,7.68A37.39,37.39,0,0,1,77.79,43.68,48.94,48.94,0,0,1,82.26,65.1a48.94,48.94,0,0,1-4.47,21.42A37.39,37.39,0,0,1,66.22,101a54.46,54.46,0,0,1-14.66,7.68,46.83,46.83,0,0,1-14.93,2.54Zm11.05-82V101H33q17,0,27.22-8.91t10.26-27q0-18.1-10.26-27T33,29.16Z" transform="translate(-0.86 -1.01)"/><path class="cls-3" d="M89.23,111.19l41-92.18h10.39l39.58,92.18H167.34l-9.46-22.66H111.33l-9.6,22.66Zm64.44-32.81L135.26,33.07H135L115.66,78.38Z" transform="translate(-0.86 -1.01)"/><path class="cls-3" d="M255.06,19V29.16H224.29v82h-11v-82H182.47V19Z" transform="translate(-0.86 -1.01)"/><path class="cls-3" d="M257.29,111.19l41-92.18h10.39l39.58,92.18H335.4l-9.46-22.66H279.38l-9.6,22.66Zm64.44-32.81L303.32,33.07h-.27L283.72,78.38Z" transform="translate(-0.86 -1.01)"/><path class="cls-3" d="M358.55,111.19V19h36q35.12,0,35.11,28,0,9.9-5.26,16.73t-14.86,8.53l23.67,38.93H408.65L389.19,74.34H379.06v36.85Zm20.51-75v21h12.1a56.22,56.22,0,0,0,6-.26,33.93,33.93,0,0,0,5.26-1.11,7.66,7.66,0,0,0,4.48-3.13,10.31,10.31,0,0,0,1.51-5.79q0-10.68-15.92-10.68Z" transform="translate(-0.86 -1.01)"/><path class="cls-3" d="M444.55,111.19V19H507.8V37.76H465.06V54.94h40.38V73.69H465.06V92.44h45.11v18.75Z" transform="translate(-0.86 -1.01)"/><path class="cls-3" d="M526.61,111.19V19h27.87l39.59,64.06h.26V19h20.51v92.18H588L547.38,45.57h-.26v65.62Z" transform="translate(-0.86 -1.01)"/><path class="cls-3" d="M624.18,111.19,664.42,19h17l40.51,92.18H698.74l-8-19.53H654.56l-7.76,19.53Zm59.57-36.72L672.31,45.83,661,74.47Z" transform="translate(-0.86 -1.01)"/><path class="cls-3" d="M731.22,111.19V19h31l21.43,60.15H784L805.52,19h30.91v92.18H815.91V40.49h-.26l-24.46,70.7H775.54L752,40.49h-.26v70.7Z" transform="translate(-0.86 -1.01)"/><path class="cls-3" d="M856.15,111.19V19H919.4V37.76H876.66V54.94H917V73.69H876.66V92.44h45.11v18.75Z" transform="translate(-0.86 -1.01)"/></svg>