<svg id="Ebene_1" data-name="Ebene 1" xmlns="http://www.w3.org/2000/svg" xmlns:xlink="http://www.w3.org/1999/xlink" viewBox="0 0 4077.27 500"><defs><style>.cls-1{fill:none;}.cls-2{clip-path:url(#clip-path);}.cls-3{fill:#cda485;}.cls-4{fill:#fff;}.cls-5{clip-path:url(#clip-path-2);}.cls-6{fill:#4d6276;}</style><clipPath id="clip-path"><rect class="cls-1" width="4077.27" height="500"/></clipPath><clipPath id="clip-path-2"><rect class="cls-1" width="4077.27" height="500"/></clipPath></defs><g class="cls-2"><polygon class="cls-3" points="3696.44 72.95 3696.44 497.13 4077.26 427.59 4077.26 4.6 3696.44 72.95"/><polygon class="cls-4" points="3788.38 273.37 3865.7 273.37 3865.7 349.93 3911.85 349.93 3911.85 273.37 3989.17 273.37 3989.17 227.65 3911.85 227.65 3911.85 151.12 3865.7 151.12 3865.7 227.65 3788.38 227.65 3788.38 273.37"/><g class="cls-5"><path class="cls-6" d="M3.32,428.51V73.25H141.17A180,180,0,0,1,198.69,83a210.48,210.48,0,0,1,56.51,29.6q27.38,19.83,44.6,55.7T317,250.88q0,46.67-17.23,82.55t-44.6,55.69a210.52,210.52,0,0,1-56.51,29.61,180,180,0,0,1-57.52,9.78ZM45.89,112.39v277H127q65.39,0,104.91-34.37t39.53-104.12q0-69.74-39.53-104.12T127,112.39Z"/><path class="cls-6" d="M343.89,428.51,502,73.25h40L694.59,428.51H644.92L608.43,341.2H429l-37,87.31ZM592.22,302.06l-71-174.61h-1l-74.5,174.61Z"/><path class="cls-6" d="M983,73.25v39.14H864.36V428.51H821.79V112.39H703.2V73.25Z"/><path class="cls-6" d="M991.56,428.51,1149.68,73.25h40l152.54,355.26H1292.6l-36.49-87.31H1076.7l-37,87.31Zm248.33-126.45-71-174.61h-1l-74.5,174.61Z"/><path class="cls-6" d="M1381.8,428.51V73.25h138.86Q1656,73.25,1656,181.14q0,38.13-20.28,64.47t-57.26,32.87l91.22,150h-94.77l-75-142h-39v142Zm79.06-289v80.78h46.62a210.53,210.53,0,0,0,23.06-1,126.43,126.43,0,0,0,20.28-4.26q11.4-3.27,17.23-12t5.82-22.33q0-41.13-61.32-41.14Z"/><path class="cls-6" d="M1713.24,428.51V73.25H1957v72.26H1792.3v66.23h155.59V284H1792.3v72.26h173.83v72.25Z"/><path class="cls-6" d="M2029.47,428.51V73.25h107.44l152.55,246.88h1V73.25h79.06V428.51H2266.15l-156.6-252.89h-1V428.51Z"/><path class="cls-6" d="M2405.51,428.51,2560.59,73.25H2626l156.1,355.26h-89.2L2662,353.25H2522.58l-29.9,75.26ZM2635.09,287,2591,176.62,2547.41,287Z"/><path class="cls-6" d="M2818,428.51V73.25h119.6l82.61,231.82h1l83.12-231.82h119.09V428.51h-79.06V156.05h-1l-94.26,272.46h-60.31l-90.72-272.46h-1V428.51Z"/><path class="cls-6" d="M3299.48,428.51V73.25h243.77v72.26H3378.54v66.23h155.59V284H3378.54v72.26h173.84v72.25Z"/></g></g></svg>