<svg id="Ebene_1" data-name="Ebene 1" xmlns="http://www.w3.org/2000/svg" xmlns:xlink="http://www.w3.org/1999/xlink" viewBox="0 0 3926.97 500"><defs><style>.cls-1{fill:none;}.cls-2{clip-path:url(#clip-path);}.cls-3{fill:#cdcc32;}.cls-4{fill:#fff;}.cls-5{clip-path:url(#clip-path-2);}.cls-6{fill:#4d6276;}</style><clipPath id="clip-path"><rect class="cls-1" width="3926.97" height="500"/></clipPath><clipPath id="clip-path-2"><rect class="cls-1" width="3926.97" height="500"/></clipPath></defs><g class="cls-2"><polygon class="cls-3" points="3538.43 72.95 3538.43 497.13 3923.11 426.89 3923.11 3.91 3538.43 72.95"/><polygon class="cls-4" points="3630.38 273.37 3707.7 273.37 3707.7 349.93 3753.84 349.93 3753.84 273.37 3831.16 273.37 3831.16 227.65 3753.84 227.65 3753.84 151.12 3707.7 151.12 3707.7 227.65 3630.38 227.65 3630.38 273.37"/><g class="cls-5"><path class="cls-6" d="M2.2,428.51V73.25H65.55L187.18,351.74h1L310.84,73.25h61.83V428.51H330.1v-298h-1l-128.73,298H174.51l-128.72-298h-1v298Z"/><path class="cls-6" d="M420.31,428.51,578.43,73.25h40L771,428.51H721.34L684.85,341.2H505.45l-37,87.31ZM668.64,302.06,597.69,127.45h-1l-74.5,174.61Z"/><path class="cls-6" d="M1023.9,105.87l-35,30.11q-20.28-32.61-65.38-32.62-31.42,0-54,15T847,163.07q0,24.09,16,37.89t59.55,27.34q26.34,8.55,41.05,14.55T996,260.92q17.75,12,25.85,29.85t8.11,42.91q0,50.18-36.74,77t-89.45,26.84a167.39,167.39,0,0,1-63.61-12q-29.64-12-46.87-37.13l36.49-29.61a73.9,73.9,0,0,0,31.92,29.36,99.13,99.13,0,0,0,44.6,10.29,93,93,0,0,0,54-16.56q24.08-16.56,24.08-45.16,0-15.06-4.31-25.09t-17.48-18.32a141.66,141.66,0,0,0-24.33-12.54q-11.16-4.26-38.52-13.3-6.08-2-9.12-3-43.59-14-66.39-35.63t-22.81-62.22q0-48.66,35.73-75.51t86.41-26.85Q987.92,64.22,1023.9,105.87Z"/><path class="cls-6" d="M1341.15,73.25v39.14H1222.56V428.51H1180V112.39H1061.4V73.25Z"/><path class="cls-6" d="M1391.32,428.51V73.25h225.52v39.14H1433.89v111.4h170.79v39.14H1433.89V389.37H1626v39.14Z"/><path class="cls-6" d="M1691.84,428.51V73.25h91.73q23.82,0,41.81,1.76a213.59,213.59,0,0,1,38,7.53q20,5.77,32.94,16t21.54,28.61q8.61,18.31,8.62,43.9,0,38.64-23.82,63t-65.89,30.86l101.87,163.58h-52.2L1789.14,269h-54.73V428.51Zm42.57-316.12V229.81h38q16.21,0,24.83-.25t23.82-1.76q15.21-1.5,23.82-5.27a116.83,116.83,0,0,0,18-10,36.38,36.38,0,0,0,13.69-16.81q4.29-10.55,4.3-24.59,0-18.06-7.34-30.61a43.36,43.36,0,0,0-20.78-18.31,108.74,108.74,0,0,0-27.12-7.78,219.76,219.76,0,0,0-31.42-2Z"/><path class="cls-6" d="M1993.39,428.51V73.25H2112q45.11,0,82.36,9.79a209.46,209.46,0,0,1,66.89,30.36q29.66,20.58,46.38,55.94t16.72,82.55q0,55.2-28.38,96.09a172.24,172.24,0,0,1-73.49,60.71q-45.11,19.83-99.83,19.82Zm79.06-283V356.26h41.05q128.73,0,128.73-108.39,0-49.68-35-76t-88.18-26.34Z"/><path class="cls-6" d="M2341.05,428.51,2496.13,73.25h65.37l156.09,355.26H2628.4l-30.92-75.26H2458.12l-29.9,75.26ZM2570.62,287l-44.09-110.39L2483,287Z"/><path class="cls-6" d="M2823,428.51v-286H2720.63V73.25h283.81V142.5H2902.07v286Z"/><path class="cls-6" d="M3007.47,428.51,3162.55,73.25h65.38L3384,428.51h-89.19l-30.92-75.26H3124.54l-29.9,75.26ZM3237.05,287,3193,176.62,3149.38,287Z"/></g></g></svg>