<svg id="Ebene_1" data-name="Ebene 1" xmlns="http://www.w3.org/2000/svg" xmlns:xlink="http://www.w3.org/1999/xlink" viewBox="0 0 3926.97 500"><defs><style>.cls-1{fill:none;}.cls-2{clip-path:url(#clip-path);}.cls-3{fill:#cdcc32;}.cls-4{fill:#fff;}.cls-5{clip-path:url(#clip-path-2);}</style><clipPath id="clip-path"><rect class="cls-1" width="3926.97" height="500"/></clipPath><clipPath id="clip-path-2"><rect class="cls-1" width="3926.97" height="500"/></clipPath></defs><g class="cls-2"><polygon class="cls-3" points="3538.43 72.95 3538.43 497.13 3923.11 426.89 3923.11 3.91 3538.43 72.95"/><polygon class="cls-4" points="3630.38 273.37 3707.7 273.37 3707.7 349.93 3753.84 349.93 3753.84 273.37 3831.16 273.37 3831.16 227.65 3753.84 227.65 3753.84 151.11 3707.7 151.11 3707.7 227.65 3630.38 227.65 3630.38 273.37"/><g class="cls-5"><path class="cls-4" d="M2.2,428.52V73.26H65.55L187.18,351.74h1L310.84,73.26h61.83V428.52H330.1V130.46h-1L200.36,428.52H174.51L45.79,130.46h-1V428.52Z"/><path class="cls-4" d="M420.31,428.52,578.43,73.26h40L771,428.52H721.34l-36.49-87.31H505.45l-37,87.31ZM668.64,302.07,597.69,127.45h-1l-74.5,174.62Z"/><path class="cls-4" d="M1023.9,105.87l-35,30.11q-20.28-32.61-65.38-32.62-31.42,0-54,15.06T847,163.08q0,24.07,16,37.88t59.55,27.35q26.34,8.53,41.05,14.55T996,260.92q17.75,12,25.85,29.86t8.11,42.9q0,50.18-36.74,77t-89.45,26.85a167.4,167.4,0,0,1-63.61-12.05q-29.64-12-46.87-37.13l36.49-29.6a73.88,73.88,0,0,0,31.92,29.35,99.13,99.13,0,0,0,44.6,10.29,93.1,93.1,0,0,0,54-16.56q24.06-16.56,24.07-45.16,0-15-4.31-25.09t-17.48-18.31a142.49,142.49,0,0,0-24.33-12.55q-11.16-4.26-38.52-13.29l-9.12-3q-43.59-14-66.39-35.62t-22.8-62.22q0-48.66,35.72-75.52t86.41-26.84Q987.92,64.23,1023.9,105.87Z"/><path class="cls-4" d="M1341.15,73.26V112.4H1222.56V428.52H1180V112.4H1061.4V73.26Z"/><path class="cls-4" d="M1391.32,428.52V73.26h225.52V112.4H1433.89V223.79h170.79v39.14H1433.89V389.38H1626v39.14Z"/><path class="cls-4" d="M1691.84,428.52V73.26h91.73q23.82,0,41.81,1.75a213.59,213.59,0,0,1,38,7.53q20,5.77,32.94,16.06t21.54,28.6q8.61,18.31,8.62,43.9,0,38.66-23.82,63t-65.89,30.86l101.87,163.58h-52.2L1789.14,269h-54.73V428.52Zm42.57-316.12V229.81h38q16.21,0,24.83-.25t23.82-1.76q15.21-1.5,23.82-5.26a116.1,116.1,0,0,0,18-10,36.33,36.33,0,0,0,13.69-16.81q4.29-10.53,4.3-24.59,0-18.06-7.34-30.6a43.39,43.39,0,0,0-20.78-18.32,108.74,108.74,0,0,0-27.12-7.78,219.77,219.77,0,0,0-31.42-2Z"/><path class="cls-4" d="M1993.39,428.52V73.26H2112q45.11,0,82.36,9.78a209.9,209.9,0,0,1,66.89,30.36q29.66,20.58,46.37,55.95t16.73,82.54q0,55.2-28.38,96.09a172.34,172.34,0,0,1-73.49,60.72q-45.11,19.82-99.83,19.82Zm79.06-283V356.26h41.05q128.73,0,128.73-108.38,0-49.68-35-76t-88.18-26.35Z"/><path class="cls-4" d="M2341.05,428.52,2496.13,73.26h65.37l156.09,355.26H2628.4l-30.92-75.27H2458.12l-29.9,75.27ZM2570.63,287l-44.1-110.39L2483,287Z"/><path class="cls-4" d="M2823,428.52v-286H2720.64V73.26h283.8V142.5H2902.07v286Z"/><path class="cls-4" d="M3007.47,428.52,3162.55,73.26h65.38L3384,428.52h-89.19l-30.92-75.27H3124.54l-29.9,75.27ZM3237.05,287,3193,176.62,3149.38,287Z"/></g></g></svg>