<?xml version="1.0" encoding="utf-8"?>
<!-- Generator: Adobe Illustrator 23.0.3, SVG Export Plug-In . SVG Version: 6.00 Build 0)  -->
<svg version="1.1" id="Ebene_1" xmlns="http://www.w3.org/2000/svg" xmlns:xlink="http://www.w3.org/1999/xlink" x="0px" y="0px"
	 viewBox="0 0 566 129.7" style="enable-background:new 0 0 566 129.7;" xml:space="preserve">
<style type="text/css">
	.st0{fill:#FFFFFF;}
	.st1{fill:#E2A101;}
	.st2{fill:#4D6276;}
</style>
<g>
	<polygon class="st0" points="566,1 466.2,18.9 466.2,129 566,110.8 566,1 	"/>
</g>
<polygon class="st1" points="490,70.9 510.1,70.9 510.1,90.8 522,90.8 522,70.9 542.1,70.9 542.1,59.1 522,59.1 522,39.2 
	510.1,39.2 510.1,59.1 490,59.1 490,70.9 "/>
<g>
	<path class="st2" d="M0.9,111.2V19h35.8c4.9,0,9.9,0.8,14.9,2.5c5,1.7,9.9,4.3,14.7,7.7c4.7,3.4,8.6,8.2,11.6,14.5
		c3,6.2,4.5,13.3,4.5,21.4c0,8.1-1.5,15.2-4.5,21.4c-3,6.2-6.8,11-11.6,14.5c-4.7,3.4-9.6,6-14.7,7.7c-5,1.7-10,2.5-14.9,2.5H0.9z
		 M11.9,29.2V101h21c11.3,0,20.4-3,27.2-8.9c6.8-5.9,10.3-15,10.3-27c0-12.1-3.4-21.1-10.3-27c-6.8-5.9-15.9-8.9-27.2-8.9H11.9z"/>
	<path class="st2" d="M178.2,99.8c-9.2,9.2-20.8,13.7-34.9,13.7c-14.1,0-25.8-4.6-34.9-13.7c-9.2-9.2-13.7-20.7-13.7-34.7
		c0-14,4.6-25.5,13.7-34.7c9.2-9.2,20.8-13.7,34.9-13.7c14.1,0,25.8,4.6,34.9,13.7c9.2,9.2,13.7,20.7,13.7,34.7
		C191.9,79.1,187.4,90.6,178.2,99.8z M116.8,92.3c6.9,7.4,15.7,11.1,26.5,11.1s19.6-3.7,26.5-11.1c6.9-7.4,10.3-16.4,10.3-27.2
		c0-10.8-3.4-19.8-10.3-27.2c-6.9-7.4-15.7-11.1-26.5-11.1s-19.6,3.7-26.5,11.1c-6.9,7.4-10.3,16.4-10.3,27.2
		C106.5,75.9,109.9,84.9,116.8,92.3z"/>
	<path class="st2" d="M284.5,31.1l-9.6,6.9c-2.7-3.6-6.1-6.4-10.3-8.3c-4.1-1.9-8.5-2.9-13-2.9c-10.2,0-18.6,3.8-25.4,11.4
		c-6.8,7.6-10.1,16.6-10.1,26.9c0,10.9,3.3,19.9,10,27.3c6.7,7.3,15.2,11,25.5,11c11.2,0,20.2-4.3,27-12.9l8.3,6.9
		c-8.1,10.8-19.8,16.1-35.2,16.1c-13.4,0-24.7-4.6-33.7-13.8c-9.1-9.2-13.6-20.7-13.6-34.6c0-13.7,4.5-25.2,13.4-34.5
		c8.9-9.3,20.3-13.9,33.9-13.9C266.1,16.7,277.1,21.5,284.5,31.1z"/>
	<path class="st2" d="M299.9,111.2V19h20.5v92.2H299.9z"/>
	<path class="st2" d="M339.1,111.2V19H367l39.6,64.1h0.3V19h20.5v92.2h-26.8l-40.6-65.6h-0.3v65.6H339.1z"/>
</g>
<g>
</g>
<g>
</g>
<g>
</g>
<g>
</g>
<g>
</g>
<g>
</g>
<g>
</g>
<g>
</g>
<g>
</g>
<g>
</g>
<g>
</g>
<g>
</g>
<g>
</g>
<g>
</g>
<g>
</g>
</svg>
