<svg id="Ebene_1" data-name="Ebene 1" xmlns="http://www.w3.org/2000/svg" xmlns:xlink="http://www.w3.org/1999/xlink" viewBox="0 0 2181.17 500"><defs><style>.cls-1{fill:none;}.cls-2{clip-path:url(#clip-path);}.cls-3{fill:#e2a103;}.cls-4{fill:#fff;}.cls-5{fill:#4d6276;}</style><clipPath id="clip-path"><rect class="cls-1" width="2181.17" height="500"/></clipPath></defs><g class="cls-2"><polygon class="cls-3" points="1796.48 72.95 1796.48 497.13 2181.16 426.89 2181.16 3.91 1796.48 72.95"/><polygon class="cls-4" points="1888.43 273.37 1965.75 273.37 1965.75 349.93 2011.9 349.93 2011.9 273.37 2089.22 273.37 2089.22 227.65 2011.9 227.65 2011.9 151.12 1965.75 151.12 1965.75 227.65 1888.43 227.65 1888.43 273.37"/><g class="cls-2"><path class="cls-5" d="M3.32,428.51V73.25H141.17A180,180,0,0,1,198.69,83a210.48,210.48,0,0,1,56.51,29.6q27.38,19.83,44.6,55.7T317,250.88q0,46.67-17.23,82.54t-44.6,55.7a210.52,210.52,0,0,1-56.51,29.61,180,180,0,0,1-57.52,9.78ZM45.89,112.39v277H127q65.39,0,104.91-34.37t39.53-104.12q0-69.74-39.53-104.12T127,112.39Z"/><path class="cls-5" d="M686.73,384.61q-53,52.93-134.55,52.93T417.63,384.61q-53-52.94-53-133.73t53-133.72q53-52.93,134.55-52.94t134.55,52.94q53,53,53,133.72T686.73,384.61ZM450.06,355.75q39.78,42.66,102.12,42.66T654.3,355.75q39.78-42.63,39.78-104.87T654.3,146q-39.79-42.64-102.12-42.65T450.06,146q-39.8,42.66-39.78,104.87T450.06,355.75Z"/><path class="cls-5" d="M1096.48,119.92l-37,26.59A102.17,102.17,0,0,0,1020,114.4a118.09,118.09,0,0,0-50.17-11q-58.8,0-97.81,43.91t-39,103.61q0,62.73,38.52,105.12t98.32,42.41q64.86,0,103.89-49.68l31.93,26.59Q1059,437.56,969.78,437.54q-77.53,0-130-53.18T787.33,250.88q0-79.27,51.7-133T969.78,64.22Q1053.41,64.22,1096.48,119.92Z"/><path class="cls-5" d="M1155.77,428.51V73.25h79.06V428.51Z"/><path class="cls-5" d="M1306.79,428.51V73.25h107.44l152.54,246.88h1V73.25h79.06V428.51H1543.46l-156.6-252.89h-1V428.51Z"/></g></g></svg>