<svg id="Ebene_1" data-name="Ebene 1" xmlns="http://www.w3.org/2000/svg" xmlns:xlink="http://www.w3.org/1999/xlink" viewBox="0 0 2181.17 500"><defs><style>.cls-1{fill:none;}.cls-2{clip-path:url(#clip-path);}.cls-3{fill:#e2a103;}.cls-4{fill:#fff;}</style><clipPath id="clip-path"><rect class="cls-1" width="2181.17" height="500"/></clipPath></defs><g class="cls-2"><polygon class="cls-3" points="1796.48 72.95 1796.48 497.13 2181.16 426.89 2181.16 3.91 1796.48 72.95"/><polygon class="cls-4" points="1888.43 273.37 1965.75 273.37 1965.75 349.93 2011.9 349.93 2011.9 273.37 2089.22 273.37 2089.22 227.65 2011.9 227.65 2011.9 151.11 1965.75 151.11 1965.75 227.65 1888.43 227.65 1888.43 273.37"/><g class="cls-2"><path class="cls-4" d="M3.32,428.52V73.26H141.17A180,180,0,0,1,198.69,83a210.81,210.81,0,0,1,56.51,29.61q27.38,19.83,44.6,55.69T317,250.89q0,46.67-17.23,82.54t-44.6,55.7a210.48,210.48,0,0,1-56.51,29.6,180,180,0,0,1-57.52,9.79ZM45.89,112.4v277H127q65.39,0,104.91-34.37t39.53-104.12q0-69.75-39.53-104.12T127,112.4Z"/><path class="cls-4" d="M686.73,384.61q-53,53-134.55,52.94T417.63,384.61q-53-52.94-53-133.72t53-133.73q53-52.92,134.55-52.93t134.55,52.93q53,53,53,133.73T686.73,384.61ZM450.06,355.76q39.78,42.64,102.12,42.65T654.3,355.76q39.78-42.64,39.78-104.87T654.3,146q-39.79-42.65-102.12-42.66T450.06,146q-39.8,42.64-39.78,104.87T450.06,355.76Z"/><path class="cls-4" d="M1096.48,119.92l-37,26.6A102.21,102.21,0,0,0,1020,114.4a118.09,118.09,0,0,0-50.17-11q-58.8,0-97.81,43.91t-39,103.62q0,62.73,38.52,105.12t98.32,42.4q64.86,0,103.89-49.68l31.93,26.6Q1059,437.55,969.78,437.55q-77.53,0-130-53.19T787.33,250.89q0-79.27,51.7-133T969.78,64.23Q1053.41,64.23,1096.48,119.92Z"/><path class="cls-4" d="M1155.77,428.52V73.26h79.06V428.52Z"/><path class="cls-4" d="M1306.79,428.52V73.26h107.44l152.54,246.87h1V73.26h79.06V428.52H1543.46l-156.6-252.9h-1v252.9Z"/></g></g></svg>