<svg id="Ebene_1" data-name="Ebene 1" xmlns="http://www.w3.org/2000/svg" xmlns:xlink="http://www.w3.org/1999/xlink" viewBox="0 0 1584.75 500"><defs><style>.cls-1{fill:none;}.cls-2{clip-path:url(#clip-path);}.cls-3,.cls-6{font-size:432.2px;font-family:MicrosoftJhengHeiUIBold, Microsoft JhengHei UI;}.cls-3{fill:#4f4e4e;}.cls-4{letter-spacing:-0.01em;}.cls-5{letter-spacing:0em;}.cls-6{fill:#fff;}.cls-7{fill:#b4b4b4;}</style><clipPath id="clip-path"><rect class="cls-1" width="1584.75" height="500"/></clipPath></defs><g class="cls-2"><g class="cls-2"><text class="cls-3" transform="translate(-12.98 -91.92)">c<tspan class="cls-4" x="218.63" y="0">r</tspan><tspan class="cls-5" x="383.1" y="0">onus</tspan></text><text class="cls-6" transform="translate(-12.98 492.85)">c<tspan class="cls-4" x="218.63" y="0">r</tspan><tspan class="cls-5" x="383.1" y="0">onus</tspan></text><path class="cls-7" d="M1133.47,173.73h0a36,36,0,1,1,36-36,36.13,36.13,0,0,1-36,36"/><path class="cls-7" d="M1214,105.93h0a36,36,0,1,1,36-36,36.12,36.12,0,0,1-36,36"/><path class="cls-7" d="M1315.68,76.27h0a36,36,0,1,1,36-36,36.13,36.13,0,0,1-36,36"/><path class="cls-7" d="M1417.37,105.93h0a36,36,0,1,1,36-36,36.12,36.12,0,0,1-36,36"/><path class="cls-7" d="M1497.88,173.73h0a36,36,0,1,1,36-36,36.13,36.13,0,0,1-36,36"/><path class="cls-7" d="M1544.49,275.42h0a36,36,0,1,1,36-36,36.12,36.12,0,0,1-36,36"/><path class="cls-7" d="M1527.54,385.59h0a36,36,0,1,1,36-36,36.11,36.11,0,0,1-36,36"/><path class="cls-7" d="M1464,478.81h0a36,36,0,1,1,36-36,36.11,36.11,0,0,1-36,36"/></g></g></svg>