<svg id="Ebene_1" data-name="Ebene 1" xmlns="http://www.w3.org/2000/svg" xmlns:xlink="http://www.w3.org/1999/xlink" viewBox="0 0 128 125.75"><defs><style>.cls-1{fill:none;}.cls-2{clip-path:url(#clip-path);}.cls-3{fill:#b5b4b4;}</style><clipPath id="clip-path"><rect class="cls-1" width="128" height="125.75"/></clipPath></defs><g class="cls-2"><g class="cls-2"><path class="cls-3" d="M9.54,44.91h0a9.55,9.55,0,1,1,9.55-9.54,9.56,9.56,0,0,1-9.55,9.54"/><path class="cls-3" d="M30.88,27h0a9.55,9.55,0,1,1,9.54-9.55A9.58,9.58,0,0,1,30.88,27"/><path class="cls-3" d="M57.82,19.09h0a9.55,9.55,0,1,1,9.55-9.55,9.58,9.58,0,0,1-9.55,9.55"/><path class="cls-3" d="M84.77,27h0a9.55,9.55,0,1,1,9.55-9.55A9.57,9.57,0,0,1,84.77,27"/><path class="cls-3" d="M106.11,44.91h0a9.55,9.55,0,1,1,9.54-9.54,9.57,9.57,0,0,1-9.54,9.54"/><path class="cls-3" d="M118.46,71.86h0A9.55,9.55,0,1,1,128,62.32a9.58,9.58,0,0,1-9.54,9.54"/><path class="cls-3" d="M114,101.05h0a9.55,9.55,0,1,1,9.55-9.54,9.57,9.57,0,0,1-9.55,9.54"/><path class="cls-3" d="M97.12,125.75h0a9.54,9.54,0,1,1,9.55-9.54,9.56,9.56,0,0,1-9.55,9.54"/></g></g></svg>