<svg id="Ebene_1" data-name="Ebene 1" xmlns="http://www.w3.org/2000/svg" xmlns:xlink="http://www.w3.org/1999/xlink" viewBox="0 0 1776.51 500"><defs><style>.cls-1{fill:none;}.cls-2{clip-path:url(#clip-path);}.cls-3{fill:#e99fc6;}.cls-4{fill:#fff;}</style><clipPath id="clip-path"><rect class="cls-1" width="1776.51" height="500"/></clipPath></defs><g class="cls-2"><polygon class="cls-3" points="1391.83 72.95 1391.83 497.13 1776.51 426.89 1776.51 3.91 1391.83 72.95"/><polygon class="cls-4" points="1483.77 273.37 1561.09 273.37 1561.09 349.93 1607.24 349.93 1607.24 273.37 1684.56 273.37 1684.56 227.65 1607.24 227.65 1607.24 151.11 1561.09 151.11 1561.09 227.65 1483.77 227.65 1483.77 273.37"/><g class="cls-2"><path class="cls-4" d="M1.8,428.52V73.26H135.6a288.59,288.59,0,0,1,47.64,3.51,170.49,170.49,0,0,1,41,12.54,67.75,67.75,0,0,1,31.42,27.85q11.13,18.83,11.15,46.42,0,29.1-16.73,49.17T205,241.85v1q35.46,4.51,57,28.35t21.54,58.46q0,26.59-11.91,46.66a81.59,81.59,0,0,1-31.93,30.86,171,171,0,0,1-42.82,16.06,213.52,213.52,0,0,1-48.15,5.27Zm79.06-289v75.77h57.27q20.77,0,35.22-9.28t14.45-29.36q0-37.12-53.22-37.13Zm0,142v80.78h71q21.28,0,37-10t15.71-31.62q0-39.13-63.86-39.13Z"/><path class="cls-4" d="M365.17,386.37Q310.94,335.19,311,250.89t54.22-135.48Q419.4,64.23,504.54,64.23t139.37,51.18q54.23,51.18,54.23,135.48T643.91,386.37q-54.24,51.18-139.37,51.18T365.17,386.37ZM423.71,168.6Q393,200.71,393.05,250.89t30.66,82.29q30.65,32.11,80.83,32.11t80.83-32.11Q616,301.06,616,250.89T585.37,168.6q-30.66-32.11-80.83-32.12T423.71,168.6Z"/><path class="cls-4" d="M751.85,428.52V73.26H859.29l152.54,246.87h1V73.26h79.06V428.52H988.52l-156.6-252.9h-1v252.9Z"/><path class="cls-4" d="M1163.87,428.52V73.26h79.06V428.52Z"/></g></g></svg>