<svg id="Ebene_1" data-name="Ebene 1" xmlns="http://www.w3.org/2000/svg" xmlns:xlink="http://www.w3.org/1999/xlink" viewBox="0 0 1776.51 500"><defs><style>.cls-1{fill:none;}.cls-2{clip-path:url(#clip-path);}.cls-3{fill:#e99fc6;}.cls-4{fill:#fff;}.cls-5{fill:#4d6276;}</style><clipPath id="clip-path"><rect class="cls-1" width="1776.51" height="500"/></clipPath></defs><g class="cls-2"><polygon class="cls-3" points="1391.83 72.95 1391.83 497.13 1776.51 426.89 1776.51 3.91 1391.83 72.95"/><polygon class="cls-4" points="1483.77 273.37 1561.09 273.37 1561.09 349.93 1607.24 349.93 1607.24 273.37 1684.56 273.37 1684.56 227.65 1607.24 227.65 1607.24 151.12 1561.09 151.12 1561.09 227.65 1483.77 227.65 1483.77 273.37"/><g class="cls-2"><path class="cls-5" d="M1.8,428.51V73.25H135.6a288.51,288.51,0,0,1,47.64,3.52,170.49,170.49,0,0,1,41,12.54,67.65,67.65,0,0,1,31.42,27.85q11.13,18.81,11.15,46.41,0,29.12-16.73,49.18T205,241.85v1q35.46,4.53,57,28.36t21.54,58.45q0,26.61-11.91,46.67a81.59,81.59,0,0,1-31.93,30.86,171,171,0,0,1-42.82,16.05,213,213,0,0,1-48.15,5.27Zm79.06-289v75.77h57.27q20.77,0,35.22-9.29t14.45-29.35q0-37.12-53.22-37.13Zm0,142v80.79h71q21.28,0,37-10t15.71-31.61q0-39.13-63.86-39.14Z"/><path class="cls-5" d="M365.17,386.36q-54.23-51.18-54.23-135.48T365.17,115.4Q419.4,64.22,504.54,64.22T643.91,115.4q54.23,51.18,54.23,135.48T643.91,386.36q-54.24,51.18-139.37,51.18T365.17,386.36Zm58.54-217.77Q393,200.71,393.05,250.88t30.66,82.29q30.65,32.13,80.83,32.12t80.83-32.12Q616,301.07,616,250.88t-30.66-82.29q-30.66-32.1-80.83-32.11T423.71,168.59Z"/><path class="cls-5" d="M751.85,428.51V73.25H859.29l152.54,246.88h1V73.25h79.06V428.51H988.52L831.92,175.62h-1V428.51Z"/><path class="cls-5" d="M1163.87,428.51V73.25h79.06V428.51Z"/></g></g></svg>