<svg id="Ebene_1" data-name="Ebene 1" xmlns="http://www.w3.org/2000/svg" xmlns:xlink="http://www.w3.org/1999/xlink" viewBox="0 0 128 123.46"><defs><style>.cls-1{fill:none;}.cls-2{clip-path:url(#clip-path);}.cls-3{fill:#00aec7;}</style><clipPath id="clip-path"><rect class="cls-1" width="128" height="123.46"/></clipPath></defs><g class="cls-2"><g class="cls-2"><path class="cls-3" d="M17.37,55.38c-.15-.26-.33-.53-.47-.78a27.15,27.15,0,0,1-2.49-20.89A27.89,27.89,0,0,1,60.67,21.2l15.22-2.66s-2.35-3.1-4.42-5.39A41.26,41.26,0,0,0,1.55,30.08a40.4,40.4,0,0,0,2,27.73Z"/><path class="cls-3" d="M107,78.6c-6.89,7.38-14,14.33-19,19.26-1.86,1.82-3.49,3.41-4.78,4.7-4.74,4.74-8.33,7.13-11.31,7.5l-.36,0-.41,0c-3-.37-6.56-2.76-11.3-7.5-1.29-1.29-2.91-2.87-4.77-4.69-2.48-2.43-5.48-5.36-8.68-8.57l-16,2.81c5.54,5.75,11,11,15.31,15.31,1.82,1.78,3.4,3.33,4.66,4.59,7.06,7,12.94,10.53,19.08,11.3.59.08,1.17.12,1.77.15h.59c.58,0,1.17-.07,1.75-.15,6.15-.77,12-4.26,19.09-11.31,1.26-1.25,2.84-2.81,4.67-4.59,8.51-8.32,21.1-20.65,30.72-32.51Z"/><polygon class="cls-3" points="49.32 49.57 35.76 51.89 35.76 38.74 49.32 36.42 49.32 49.57"/><polygon class="cls-3" points="107.56 49.57 93.99 51.89 93.99 38.74 107.56 36.42 107.56 49.57"/></g></g></svg>