<svg id="Ebene_1" data-name="Ebene 1" xmlns="http://www.w3.org/2000/svg" viewBox="0 0 492.52 475.06"><defs><style>.cls-1{fill:#fff;}</style></defs><path class="cls-1" d="M66.85,213.1c-.59-1-1.27-2-1.82-3a104.46,104.46,0,0,1-9.59-80.39,107.3,107.3,0,0,1,178-48.11L292,71.35S283,59.41,275,50.59c-47.92-52-128-66.78-192.94-30.83a158.07,158.07,0,0,0-76.1,96,155.36,155.36,0,0,0,7.82,106.7Z"/><path class="cls-1" d="M411.61,302.45c-26.51,28.37-53.83,55.12-73.24,74.11-7.17,7-13.42,13.11-18.37,18.07-18.25,18.26-32.08,27.43-43.54,28.86-.54.07-1.09.12-1.37.15l-1.57-.15c-11.42-1.43-25.24-10.6-43.51-28.86-4.95-4.95-11.18-11.06-18.35-18.06-9.55-9.34-21.06-20.61-33.4-33l-61.44,10.84c21.32,22.11,42.17,42.51,58.9,58.87,7,6.86,13.11,12.82,17.95,17.67,27.14,27.12,49.8,40.54,73.4,43.49,2.26.3,4.53.48,6.81.57l1.77,0,.5,0c2.26-.09,4.53-.27,6.74-.56,23.67-3,46.32-16.38,73.46-43.51,4.84-4.84,10.94-10.81,18-17.67,32.74-32,81.19-79.45,118.21-125.11Z"/><polygon class="cls-1" points="189.79 190.75 137.59 199.68 137.59 149.05 189.79 140.13 189.79 190.75"/><polygon class="cls-1" points="413.85 190.75 361.65 199.68 361.65 149.05 413.85 140.13 413.85 190.75"/></svg>