<svg id="Ebene_1" data-name="Ebene 1" xmlns="http://www.w3.org/2000/svg" xmlns:xlink="http://www.w3.org/1999/xlink" viewBox="0 0 2794.97 500"><defs><style>.cls-1{fill:none;}.cls-2{clip-path:url(#clip-path);}.cls-3{fill:#05afc7;}.cls-4{clip-path:url(#clip-path-2);}.cls-5{fill:#49657c;}</style><clipPath id="clip-path"><rect class="cls-1" x="-0.01" width="2794.99" height="500"/></clipPath><clipPath id="clip-path-2"><rect class="cls-1" x="-0.01" width="2794.98" height="500"/></clipPath></defs><g class="cls-2"><path class="cls-3" d="M820.81,6.39,714.86,257.52h59.55l20.43-53.19h95.21l21.13,53.19h60.94L865.48,6.39Zm-9,151.11,29.79-78.06,30.13,78.06Z"/><g class="cls-4"><path class="cls-3" d="M1119.28,159.64h44v40.78c-10,5.66-27.36,12.4-50.89,12.4-46,0-76.19-34-76.19-80.86s30.14-80.88,76.19-80.88c27.35,0,45,8.16,59.55,23.76L1210,32.27C1185.41,8.87,1151.12,0,1112.35,0c-76.53,0-132.27,51.43-132.27,132s55.74,132,132.27,132c36,0,71-7.09,102.82-24.11V108.54h-95.89Z"/><path class="cls-3" d="M1378.26,0C1301.74,0,1246,51.43,1246,132s55.75,132,132.27,132,132.25-51.43,132.25-132S1454.79,0,1378.26,0m0,212.82c-46,0-76.18-34-76.18-80.86s30.13-80.88,76.18-80.88,76.18,34.06,76.18,80.88-30.13,80.86-76.18,80.86"/><polygon class="cls-3" points="1600.19 6.39 1546.18 6.39 1546.18 257.53 1700.26 257.53 1700.26 206.44 1600.19 206.44 1600.19 6.39"/><path class="cls-3" d="M1879.62,158.55c0,30.87-20.78,54.29-49.18,54.29-28.75,0-49.49-23.42-49.49-54.29V6.37h-54v154.3c0,59.25,35.33,103.24,103.52,103.24,67.85,0,103.17-44,103.17-103.24V6.37h-54Z"/><polygon class="cls-3" points="1957.86 55.34 2027.81 55.34 2027.81 257.53 2081.81 257.53 2081.81 55.34 2151.76 55.34 2151.76 6.4 1957.86 6.4 1957.86 55.34"/><rect class="cls-3" x="2175.31" y="6.38" width="53.99" height="251.16"/><path class="cls-3" d="M2394.46,0C2318,0,2262.22,51.43,2262.22,132s55.73,132,132.24,132,132.27-51.43,132.27-132S2471,0,2394.46,0m0,212.82c-46.05,0-76.19-34-76.19-80.86s30.14-80.88,76.19-80.88,76.18,34.06,76.18,80.88-30.12,80.86-76.18,80.86"/><polygon class="cls-3" points="2738.63 6.39 2738.63 180.9 2737.92 180.9 2633.73 6.39 2560.32 6.39 2560.32 257.53 2614.34 257.53 2614.34 78.74 2615.03 78.74 2721.98 257.53 2792.67 257.53 2792.67 6.39 2738.63 6.39"/><path class="cls-3" d="M736.56,57.61a24.64,24.64,0,0,0,18.1-7.56,24.62,24.62,0,0,0,7.53-18,24.77,24.77,0,0,0-7.53-18.07,25.47,25.47,0,0,0-36.16,0A24.62,24.62,0,0,0,711,32a24.48,24.48,0,0,0,7.54,18,24.57,24.57,0,0,0,18.06,7.56M721.05,16.47a21.91,21.91,0,0,1,31,0A21.15,21.15,0,0,1,758.55,32a21.16,21.16,0,0,1-6.47,15.52,21.9,21.9,0,0,1-31.05,0A21.15,21.15,0,0,1,714.59,32a21.17,21.17,0,0,1,6.46-15.53"/><path class="cls-3" d="M729.86,34.2h8.2l5.74,12.72h4.85L742.49,33.2a7.91,7.91,0,0,0,4.34-3.09,8.39,8.39,0,0,0,1.39-4.55,8.27,8.27,0,0,0-2.52-5.8c-1.7-1.76-4.25-2.62-7.64-2.62H725.49V46.92h4.37Zm0-13.39h8.2A6.48,6.48,0,0,1,742,22a4.13,4.13,0,0,1,1.56,3.49,5.29,5.29,0,0,1-1.46,3.74,6.09,6.09,0,0,1-4.54,1.49h-7.71Z"/><polygon class="cls-5" points="713.84 345.74 740.4 345.74 791.41 463.66 791.83 463.66 843.25 345.74 869.18 345.74 869.18 496.18 851.33 496.18 851.33 369.96 850.9 369.96 796.92 496.18 786.09 496.18 732.12 369.96 731.7 369.96 731.7 496.18 713.84 496.18 713.84 345.74"/><rect class="cls-5" x="906.57" y="345.74" width="17.85" height="150.44"/><polygon class="cls-5" points="1062.75 362.31 1013.03 362.31 1013.03 496.18 995.18 496.18 995.18 362.31 945.46 362.31 945.46 345.74 1062.75 345.74 1062.75 362.31"/><polygon class="cls-5" points="1142.86 345.74 1160.71 345.74 1160.71 410.75 1163.27 410.75 1231.68 345.74 1257.39 345.74 1183.02 414.36 1261.01 496.18 1234.87 496.18 1163.27 419.68 1160.71 419.68 1160.71 496.18 1142.86 496.18 1142.86 345.74"/><path class="cls-5" d="M1346.64,500a81.69,81.69,0,0,1-31.56-5.95,75.61,75.61,0,0,1-24.85-16.47,73.84,73.84,0,0,1-16.37-25.07,88.17,88.17,0,0,1,0-63.11,74,74,0,0,1,16.37-25.08,75.92,75.92,0,0,1,24.85-16.47,86.78,86.78,0,0,1,63.11,0,76,76,0,0,1,24.87,16.47,74.11,74.11,0,0,1,16.36,25.08,88.17,88.17,0,0,1,0,63.11,74,74,0,0,1-16.36,25.07,75.7,75.7,0,0,1-24.87,16.47,81.68,81.68,0,0,1-31.55,5.95m0-16.58a58.48,58.48,0,0,0,24.12-4.88,57.18,57.18,0,0,0,18.8-13.38,61.41,61.41,0,0,0,12.22-19.87,70.09,70.09,0,0,0,0-48.67,61.26,61.26,0,0,0-12.22-19.86,57.06,57.06,0,0,0-18.8-13.39,62,62,0,0,0-48.24,0,57,57,0,0,0-18.8,13.39,60.92,60.92,0,0,0-12.22,19.86,70.09,70.09,0,0,0,0,48.67,61.07,61.07,0,0,0,12.22,19.87,57.08,57.08,0,0,0,18.8,13.38,58.41,58.41,0,0,0,24.12,4.88"/><path class="cls-5" d="M1453.94,345.74h44.63a95.33,95.33,0,0,1,19.86,2,49.25,49.25,0,0,1,16.79,6.8,34.94,34.94,0,0,1,11.69,12.75q4.35,8,4.35,19.65,0,12.35-4.67,20.4a36.47,36.47,0,0,1-12,12.75,49,49,0,0,1-16,6.59,77.79,77.79,0,0,1-16.58,1.92h-30.17v67.57h-17.85ZM1471.79,412H1502q13.39,0,21.79-6.06t8.39-18.8q0-12.75-8.39-18.8T1502,362.31h-30.17Z"/><polygon class="cls-5" points="1579.95 345.74 1673.23 345.74 1673.23 362.31 1597.8 362.31 1597.8 412.03 1667.92 412.03 1667.92 428.61 1597.8 428.61 1597.8 496.18 1579.95 496.18 1579.95 345.74"/><path class="cls-5" d="M1870,438.81a86.78,86.78,0,0,1-3.09,23.37,54.14,54.14,0,0,1-9.77,19.44A47.19,47.19,0,0,1,1839.61,495q-10.83,5-26.34,5t-26.35-5a47.24,47.24,0,0,1-17.53-13.39,54.32,54.32,0,0,1-9.78-19.44,86.78,86.78,0,0,1-3.08-23.37V345.74h17.85v90.51a80.34,80.34,0,0,0,1.91,17.64,43.71,43.71,0,0,0,6.38,15.09,32.38,32.38,0,0,0,11.9,10.52q7.42,3.93,18.7,3.92c7.51,0,13.73-1.3,18.7-3.92a32.46,32.46,0,0,0,11.9-10.52,43.69,43.69,0,0,0,6.37-15.09,79.74,79.74,0,0,0,1.91-17.64V345.74H1870Z"/><polygon class="cls-5" points="1906.77 345.74 1929.29 345.74 2016.41 470.68 2016.84 470.68 2016.84 345.74 2034.68 345.74 2034.68 496.18 2012.15 496.18 1925.04 371.23 1924.61 371.23 1924.61 496.18 1906.77 496.18 1906.77 345.74"/><path class="cls-5" d="M2069.32,345.74h57.8a78.53,78.53,0,0,1,15.72,1.69,76.92,76.92,0,0,1,32.2,15.09,65.1,65.1,0,0,1,13.28,14.34,71.84,71.84,0,0,1,9.13,19.34,91.82,91.82,0,0,1,0,49.51,71.84,71.84,0,0,1-9.13,19.34A64.88,64.88,0,0,1,2175,479.39a76.73,76.73,0,0,1-32.2,15.08,77.89,77.89,0,0,1-15.72,1.71h-57.8Zm17.85,133.86h34a81.22,81.22,0,0,0,24-3.4,51.23,51.23,0,0,0,19.12-10.51,49.58,49.58,0,0,0,12.75-18.18q4.68-11,4.68-26.56t-4.68-26.56a49.71,49.71,0,0,0-12.75-18.17,51.37,51.37,0,0,0-19.12-10.51,81.22,81.22,0,0,0-24-3.4h-34Z"/><polygon class="cls-5" points="2288.61 345.74 2306.46 345.74 2306.46 409.48 2386.78 409.48 2386.78 345.74 2404.63 345.74 2404.63 496.18 2386.78 496.18 2386.78 426.06 2306.46 426.06 2306.46 496.18 2288.61 496.18 2288.61 345.74"/><polygon class="cls-5" points="2442.03 345.74 2536.58 345.74 2536.58 362.31 2459.87 362.31 2459.87 409.48 2531.49 409.48 2531.49 426.06 2459.87 426.06 2459.87 479.6 2540.4 479.6 2540.4 496.18 2442.03 496.18 2442.03 345.74"/><path class="cls-5" d="M2568,345.74h38.46a182.81,182.81,0,0,1,21.57,1.27,57.86,57.86,0,0,1,19.23,5.52A35,35,0,0,1,2661.1,365q5.31,8.19,5.31,22.21,0,16.56-10,26.77t-27.62,13l42.71,69.28h-21.88l-40.8-67.57h-22.95v67.57H2568ZM2585.88,412h15.94q7.42,0,15.4-.42a52.63,52.63,0,0,0,14.66-2.77,25.42,25.42,0,0,0,11-7.33q4.35-5,4.36-14.34,0-8.07-3.19-13a21.63,21.63,0,0,0-8.39-7.54,35.84,35.84,0,0,0-11.7-3.5,99.43,99.43,0,0,0-13.05-.85h-25.08Z"/><polygon class="cls-5" points="2685.33 480.24 2772.23 362.31 2686.6 362.31 2686.6 345.74 2793.91 345.74 2793.91 361.03 2706.99 479.6 2794.97 479.6 2794.97 496.18 2685.33 496.18 2685.33 480.24"/><path class="cls-3" d="M69,227.87c-.61-1-1.31-2.1-1.88-3.11a107.8,107.8,0,0,1-9.89-83A110.76,110.76,0,0,1,241,92.11l60.47-10.56s-9.33-12.33-17.54-21.44C234.41,6.43,151.77-8.82,84.71,28.29A163.2,163.2,0,0,0,6.15,127.37a160.41,160.41,0,0,0,8.08,110.15Z"/><path class="cls-3" d="M424.88,320.11c-27.36,29.28-55.56,56.89-75.6,76.49-7.4,7.24-13.85,13.54-19,18.66-18.84,18.84-33.12,28.31-44.95,29.79-.56.07-1.12.12-1.41.15-.53,0-1.07-.09-1.62-.16-11.79-1.47-26.06-10.94-44.91-29.78-5.11-5.11-11.54-11.41-19-18.64-9.86-9.65-21.74-21.28-34.48-34l-63.42,11.19c22,22.82,43.53,43.89,60.81,60.77,7.23,7.08,13.53,13.23,18.53,18.24,28,28,51.4,41.85,75.76,44.9,2.34.3,4.68.49,7,.59h2.34c2.33-.1,4.68-.29,7-.58,24.43-3.06,47.82-16.91,75.83-44.92,5-5,11.3-11.16,18.54-18.24,33.8-33.06,83.81-82,122-129.15Z"/><polygon class="cls-3" points="195.91 204.8 142.02 214.01 142.02 161.76 195.91 152.54 195.91 204.8"/><polygon class="cls-3" points="427.2 204.8 373.32 214.01 373.32 161.76 427.2 152.54 427.2 204.8"/></g></g></svg>