<svg id="Ebene_1" data-name="Ebene 1" xmlns="http://www.w3.org/2000/svg" xmlns:xlink="http://www.w3.org/1999/xlink" viewBox="0 0 1000 1000"><defs><style>.cls-1{fill:none;}.cls-2{fill:#00aec7;stroke:#1d1d1b;stroke-miterlimit:10;}.cls-3{fill:#fff;}.cls-4{clip-path:url(#clip-path);}</style><clipPath id="clip-path"><rect class="cls-1" x="276" y="87.9" width="448" height="432.12"/></clipPath></defs><rect class="cls-2" width="1000" height="1000"/><path class="cls-3" d="M318.53,859.54H413v47.25H259.38v-255h59.15Z"/><path class="cls-3" d="M505.78,906.79h-59.5v-255h59.5Z"/><path class="cls-3" d="M553,906.79v-255h93.8q26.43,0,45,4.9t30.27,13.83a52.38,52.38,0,0,1,17.07,21.7,73.43,73.43,0,0,1,5.33,28.52A55.71,55.71,0,0,1,742,737.3a48.5,48.5,0,0,1-7.7,15A57.44,57.44,0,0,1,720.85,765a87.12,87.12,0,0,1-19.78,9.89q25.21,6.12,37.28,19.86T750.42,830a73,73,0,0,1-6.3,30.28,69.31,69.31,0,0,1-18.46,24.41q-12.17,10.41-30,16.27t-40.77,5.87Zm59.15-147.7H643a101.83,101.83,0,0,0,17.68-1.4,37,37,0,0,0,13.39-4.9,22.57,22.57,0,0,0,8.4-9.63q2.88-6.12,2.88-15.4a43.55,43.55,0,0,0-2.27-15.14,21.73,21.73,0,0,0-7-9.71,29.41,29.41,0,0,0-12-5.25,82.35,82.35,0,0,0-17.24-1.57H612.17Zm0,39.55v63.52h41.65q11.73,0,19.17-3a30.28,30.28,0,0,0,11.63-7.7,25.84,25.84,0,0,0,5.78-10.68A46.93,46.93,0,0,0,692,828.74a40.43,40.43,0,0,0-1.83-12.6,20.85,20.85,0,0,0-6.3-9.45,30.81,30.81,0,0,0-11.82-6,68.82,68.82,0,0,0-18.55-2.1Z"/><g class="cls-4"><g class="cls-4"><path class="cls-3" d="M336.8,281.73c-.53-.9-1.15-1.84-1.65-2.73a95,95,0,0,1-8.72-73.13,97.6,97.6,0,0,1,161.9-43.76l53.28-9.31s-8.22-10.86-15.46-18.89c-43.59-47.31-116.41-60.74-175.5-28a143.77,143.77,0,0,0-69.22,87.31,141.33,141.33,0,0,0,7.11,97.06Z"/><path class="cls-3" d="M650.4,363c-24.11,25.81-49,50.13-66.62,67.4-6.52,6.38-12.2,11.94-16.71,16.45-16.6,16.6-29.18,24.94-39.6,26.25l-1.25.13c-.46,0-.94-.08-1.42-.14-10.39-1.3-23-9.64-39.58-26.24-4.5-4.51-10.17-10.06-16.69-16.43-8.69-8.5-19.16-18.75-30.39-30l-55.88,9.85c19.39,20.12,38.36,38.68,53.58,53.56,6.37,6.23,11.92,11.66,16.33,16.07,24.68,24.67,45.29,36.87,66.76,39.56,2.05.27,4.12.43,6.19.52h2.07c2-.09,4.11-.25,6.13-.51,21.53-2.7,42.13-14.9,66.82-39.58,4.4-4.4,10-9.84,16.33-16.08C646.26,434.71,690.33,391.57,724,350Z"/><polygon class="cls-3" points="448.63 261.4 401.15 269.52 401.15 223.48 448.63 215.36 448.63 261.4"/><polygon class="cls-3" points="652.44 261.4 604.96 269.52 604.96 223.48 652.44 215.36 652.44 261.4"/></g></g></svg>