<svg id="Ebene_1" data-name="Ebene 1" xmlns="http://www.w3.org/2000/svg" xmlns:xlink="http://www.w3.org/1999/xlink" viewBox="0 0 1000 1000"><defs><style>.cls-1{fill:none;}.cls-2{fill:#00aec7;stroke:#1d1d1b;stroke-miterlimit:10;}.cls-3{fill:#fff;}.cls-4{clip-path:url(#clip-path);}</style><clipPath id="clip-path"><rect class="cls-1" x="276" y="87.9" width="448" height="432.12"/></clipPath></defs><rect class="cls-2" width="1000" height="1000"/><path class="cls-3" d="M264.8,821.56v85.23H205.66v-255h90q26.94,0,46.28,6.39t31.85,17.59a68.57,68.57,0,0,1,18.47,26.42,89.74,89.74,0,0,1,6,32.9,96.77,96.77,0,0,1-6.13,35,70.06,70.06,0,0,1-18.73,27.3q-12.58,11.39-31.93,17.76t-45.76,6.39Zm0-44.62h30.81q23.08,0,33.25-11T339,735.11a46,46,0,0,0-2.62-15.92,32.44,32.44,0,0,0-8-12.34,35.73,35.73,0,0,0-13.48-8,59.47,59.47,0,0,0-19.33-2.8H264.8Z"/><path class="cls-3" d="M614.1,651.81v46.9H542.35V906.79H483.2V698.71H411.45v-46.9Z"/><path class="cls-3" d="M802.75,651.81v45.5H698.1v59.5h80.15v43.75H698.1v60.73H802.75v45.5H638.6v-255Z"/><g class="cls-4"><g class="cls-4"><path class="cls-3" d="M336.8,281.73c-.53-.9-1.15-1.84-1.65-2.73a95,95,0,0,1-8.72-73.13,97.6,97.6,0,0,1,161.9-43.76l53.28-9.31s-8.22-10.86-15.46-18.89c-43.59-47.31-116.41-60.74-175.5-28a143.77,143.77,0,0,0-69.22,87.31,141.33,141.33,0,0,0,7.11,97.06Z"/><path class="cls-3" d="M650.4,363c-24.11,25.81-49,50.13-66.62,67.4-6.52,6.38-12.2,11.94-16.71,16.45-16.6,16.6-29.18,24.94-39.6,26.25l-1.25.13c-.46,0-.94-.08-1.42-.14-10.39-1.3-23-9.64-39.58-26.24-4.5-4.51-10.17-10.06-16.69-16.43-8.69-8.5-19.16-18.75-30.39-30l-55.88,9.85c19.39,20.12,38.36,38.68,53.58,53.56,6.37,6.23,11.92,11.66,16.33,16.07,24.68,24.67,45.29,36.87,66.76,39.56,2.05.27,4.12.43,6.19.52h2.07c2-.09,4.11-.25,6.13-.51,21.53-2.7,42.13-14.9,66.82-39.58,4.4-4.4,10-9.84,16.33-16.08C646.26,434.71,690.33,391.57,724,350Z"/><polygon class="cls-3" points="448.63 261.4 401.15 269.52 401.15 223.48 448.63 215.36 448.63 261.4"/><polygon class="cls-3" points="652.44 261.4 604.96 269.52 604.96 223.48 652.44 215.36 652.44 261.4"/></g></g></svg>