<svg id="Ebene_1" data-name="Ebene 1" xmlns="http://www.w3.org/2000/svg" xmlns:xlink="http://www.w3.org/1999/xlink" viewBox="0 0 3745.83 500">
  <defs>
    <style>
      .cls-1 {
        fill: none;
      }

      .cls-2 {
        clip-path: url(#clip-path);
      }

      .cls-3 {
        fill: #d55023;
      }

      .cls-4 {
        fill: #fff;
      }

      .cls-5 {
        fill: #48647b;
      }
    </style>
    <clipPath id="clip-path">
      <rect class="cls-1" x="3.32" y="-3.98" width="3744.3" height="511.37"/>
    </clipPath>
  </defs>
  <g class="cls-2">
    <polygon class="cls-3" points="3350.24 70.63 3350.24 504.46 3743.67 432.62 3743.67 0.02 3350.24 70.63"/>
    <polygon class="cls-4" points="3444.28 275.61 3523.36 275.61 3523.36 353.91 3570.56 353.91 3570.56 275.61 3649.63 275.61 3649.63 228.84 3570.56 228.84 3570.56 150.57 3523.36 150.57 3523.36 228.84 3444.28 228.84 3444.28 275.61"/>
    <g class="cls-2">
      <g>
        <path class="cls-5" d="M294.4,358.33a10.46,10.46,0,0,1,7.51,3.33l19.7,21.3a158.83,158.83,0,0,1-55.33,40.8q-32.53,14.63-78.4,14.62-40.17,0-72.82-13.72a159.51,159.51,0,0,1-55.72-38.49q-23.07-24.76-35.77-59.4T10.88,250.56q0-41.56,13.6-76.21t38.23-59.53a171.26,171.26,0,0,1,59-38.62Q156,62.47,197.47,62.48q41,0,70.62,12.57a178.69,178.69,0,0,1,52.74,34.13L304.5,132a17.78,17.78,0,0,1-4.14,4.24q-2.34,1.67-6.74,1.66a13.22,13.22,0,0,1-7.13-2.43q-3.76-2.44-8.94-6t-12.18-7.7a107.82,107.82,0,0,0-16.59-7.7,139.11,139.11,0,0,0-22.28-6,157.13,157.13,0,0,0-29.29-2.44q-29.81,0-54.55,10.14A122.2,122.2,0,0,0,100,144.59q-17.9,18.72-27.86,45.67t-10,60.3q0,34.38,10,61.32t27.21,45.55a114.7,114.7,0,0,0,40.82,28.35A131.41,131.41,0,0,0,191,395.53a208.68,208.68,0,0,0,29.8-1.92,122.74,122.74,0,0,0,24.49-6,104.24,104.24,0,0,0,21-10.39,164.75,164.75,0,0,0,19.56-15Q290.25,358.33,294.4,358.33Z"/>
        <path class="cls-5" d="M688.83,434.28H638.3V267H438.23v167.3H387.69V66.58h50.54v164H638.3v-164h50.53Z"/>
        <path class="cls-5" d="M1085.09,434.28h-38.88q-6.74,0-10.88-3.34a20.42,20.42,0,0,1-6.22-8.46l-34.73-88.79H827.74L793,422.48a20.14,20.14,0,0,1-6.22,8.21,16.68,16.68,0,0,1-10.88,3.59H737L885.53,66.58h51.06ZM841.74,297.77H980.39L922.08,148.18a276.78,276.78,0,0,1-11.15-34.64q-2.85,10.51-5.57,19.37t-5.31,15.52Z"/>
        <path class="cls-5" d="M1167.88,68.25q3.24,1.66,7.39,6.8l215.1,277.12c-.52-4.45-.86-8.76-1-13s-.26-8.25-.26-12.19V66.58h44.05v367.7h-25.39a21.74,21.74,0,0,1-10-2,25.23,25.23,0,0,1-7.91-6.93L1175,148.43q.51,6.42.78,12.58c.17,4.1.26,7.87.26,11.29v262H1132V66.58h25.92Q1164.65,66.58,1167.88,68.25Z"/>
        <path class="cls-5" d="M1689.44,398.1a248.72,248.72,0,0,0,27.6-1.41,177.13,177.13,0,0,0,23.71-4.23,164.51,164.51,0,0,0,21-6.8q9.84-4,19.69-9.11V295.46h-57.53a11,11,0,0,1-7.91-2.82,9.19,9.19,0,0,1-3-6.93V257.49h114V398.61a206.33,206.33,0,0,1-29.15,17.45,200.4,200.4,0,0,1-32.4,12.45,237.89,237.89,0,0,1-36.93,7.44,350.22,350.22,0,0,1-42.76,2.43q-40.43,0-74.12-13.72a170.72,170.72,0,0,1-58-38.49q-24.36-24.76-38-59.4t-13.6-76.21q0-42.08,13.34-76.72t38.1-59.4q24.75-24.76,59.87-38.36T1692,62.48a246.36,246.36,0,0,1,41,3.2,193.1,193.1,0,0,1,35.11,9.24A164.42,164.42,0,0,1,1798,89.55a182.15,182.15,0,0,1,25.65,19.37l-14.25,22.58q-4.41,6.93-11.4,6.93a18.4,18.4,0,0,1-9.07-2.83q-6.48-3.58-14.52-8.72a125.35,125.35,0,0,0-19.56-9.88,158.9,158.9,0,0,0-27.21-8.08q-15.69-3.33-37.19-3.34-31.37,0-56.76,10.14a120.18,120.18,0,0,0-43.28,29q-17.88,18.87-27.47,45.68t-9.59,60.17q0,34.89,10,62.22t28.12,46.32a121.29,121.29,0,0,0,43,29Q1659.37,398.1,1689.44,398.1Z"/>
        <path class="cls-5" d="M2133.12,66.58v40.54h-178.3V229.26h144.35v39H1954.82V393.74h178.3v40.54H1904.28V66.58Z"/>
      </g>
      <g>
        <path class="cls-5" d="M2279,365H2419v69.28H2191.43V60.42H2279Z"/>
        <path class="cls-5" d="M2833.1,247.22q0,40.54-14.12,75.44a181.83,181.83,0,0,1-39.78,60.69q-25.66,25.78-61.81,40.41t-80.21,14.62q-44.07,0-80.34-14.62t-62.07-40.41a180.64,180.64,0,0,1-39.91-60.69q-14.13-34.89-14.13-75.44t14.13-75.44a179.26,179.26,0,0,1,39.91-60.55q25.79-25.67,62.07-40.29t80.34-14.62q44.06,0,80.21,14.75t61.81,40.42A180.33,180.33,0,0,1,2819,172Q2833.1,206.95,2833.1,247.22Zm-89.67,0q0-27.71-7.25-49.9t-20.87-37.6a89.93,89.93,0,0,0-33.3-23.6q-19.7-8.2-44.83-8.21-25.41,0-45.23,8.21a89.76,89.76,0,0,0-33.43,23.6q-13.61,15.41-20.86,37.6t-7.26,49.9q0,28,7.26,50.17T2558.52,335A88.59,88.59,0,0,0,2592,358.46q19.83,8.07,45.23,8.08,25.13,0,44.83-8.08a88.74,88.74,0,0,0,33.3-23.48q13.61-15.41,20.87-37.59T2743.43,247.22Z"/>
        <path class="cls-5" d="M3052.86,371.67a150.73,150.73,0,0,0,32.14-3.08,158.17,158.17,0,0,0,26.43-8.21V303.67h-37.32q-8.3,0-13-4.36a14.45,14.45,0,0,1-4.67-11V240.55h134.24V398.36a193.27,193.27,0,0,1-63.62,30.53,251.35,251.35,0,0,1-37.84,7.19,378.55,378.55,0,0,1-43.15,2.3q-41.46,0-76.71-14.49a186.61,186.61,0,0,1-61-40A184.11,184.11,0,0,1,2868,323.3q-14.64-35-14.64-76.08,0-41.82,14-76.85a172.93,172.93,0,0,1,40-60.42q26.05-25.41,63-39.52t82.54-14.11a242.51,242.51,0,0,1,44.32,3.85,218.92,218.92,0,0,1,38.22,10.52,176.59,176.59,0,0,1,32,15.91,172,172,0,0,1,25.92,20l-25.4,38.23a28.08,28.08,0,0,1-8.68,8.47,20.81,20.81,0,0,1-11,3.08q-7.77,0-16.07-5.13-10.36-6.16-19.56-10.65a120.64,120.64,0,0,0-18.79-7.31,124.77,124.77,0,0,0-20.22-4.11,201.41,201.41,0,0,0-23.84-1.28q-24.61,0-44.31,8.59a95,95,0,0,0-33.56,24.25,109.39,109.39,0,0,0-21.39,37.59q-7.51,21.94-7.51,48.88,0,29.78,8.29,52.86t22.94,39a97.3,97.3,0,0,0,34.72,24.25A113.43,113.43,0,0,0,3052.86,371.67Z"/>
      </g>
    </g>
  </g>
</svg>
