<svg id="Ebene_1" data-name="Ebene 1" xmlns="http://www.w3.org/2000/svg" xmlns:xlink="http://www.w3.org/1999/xlink" viewBox="0 0 3745.83 500">
  <defs>
    <style>
      .cls-1 {
        fill: none;
      }

      .cls-2 {
        clip-path: url(#clip-path);
      }

      .cls-3 {
        fill: #d55023;
      }

      .cls-4 {
        fill: #fff;
      }
    </style>
    <clipPath id="clip-path">
      <rect class="cls-1" x="1.23" y="-5.68" width="3744.3" height="511.37"/>
    </clipPath>
  </defs>
  <g class="cls-2">
    <polygon class="cls-3" points="3348.16 68.92 3348.16 502.75 3741.59 430.91 3741.59 -1.68 3348.16 68.92"/>
    <polygon class="cls-4" points="3442.2 273.9 3521.28 273.9 3521.28 352.2 3568.48 352.2 3568.48 273.9 3647.55 273.9 3647.55 227.14 3568.48 227.14 3568.48 148.87 3521.28 148.87 3521.28 227.14 3442.2 227.14 3442.2 273.9"/>
    <g class="cls-2">
      <g>
        <path class="cls-4" d="M292.31,356.62a10.5,10.5,0,0,1,7.52,3.34l19.69,21.3a158.83,158.83,0,0,1-55.33,40.79q-32.52,14.63-78.39,14.63-40.17,0-72.83-13.73a159.6,159.6,0,0,1-55.72-38.49q-23.07-24.75-35.76-59.4T8.79,248.85q0-41.57,13.61-76.2t38.22-59.53a171.31,171.31,0,0,1,59-38.62q34.33-13.73,75.81-13.73,40.94,0,70.62,12.57a178.89,178.89,0,0,1,52.74,34.13l-16.33,22.84a17.59,17.59,0,0,1-4.15,4.23c-1.55,1.12-3.8,1.67-6.74,1.67a13.15,13.15,0,0,1-7.12-2.44q-3.77-2.43-8.94-6T263.29,120a107.85,107.85,0,0,0-16.59-7.69,136.9,136.9,0,0,0-22.29-6,156.17,156.17,0,0,0-29.28-2.44q-29.81,0-54.56,10.13a122.33,122.33,0,0,0-42.63,28.87q-17.88,18.74-27.86,45.67t-10,60.3q0,34.39,10,61.33t27.21,45.54a114.68,114.68,0,0,0,40.82,28.36,131.65,131.65,0,0,0,50.8,9.75,207.23,207.23,0,0,0,29.8-1.93,122.91,122.91,0,0,0,24.49-6,103.12,103.12,0,0,0,21-10.39,163.76,163.76,0,0,0,19.57-15Q288.17,356.63,292.31,356.62Z"/>
        <path class="cls-4" d="M686.75,432.57H636.21V265.28H436.14V432.57H385.61V64.88h50.53v164H636.21v-164h50.54Z"/>
        <path class="cls-4" d="M1083,432.57h-38.87c-4.5,0-8.12-1.11-10.89-3.33a20.45,20.45,0,0,1-6.21-8.47L992.3,332H825.66l-34.73,88.78a20,20,0,0,1-6.22,8.21,16.64,16.64,0,0,1-10.88,3.59H735L883.45,64.88h51.06ZM839.65,296.07H978.3L920,146.47a277.5,277.5,0,0,1-11.14-34.64q-2.85,10.53-5.57,19.38T898,146.73Z"/>
        <path class="cls-4" d="M1165.8,66.54q3.24,1.68,7.39,6.8l215.1,277.12q-.78-6.66-1-12.95t-.26-12.19V64.88h44.06V432.57h-25.4a21.79,21.79,0,0,1-10-2.05,25.1,25.1,0,0,1-7.9-6.93L1172.93,146.73q.51,6.42.77,12.57t.26,11.29v262h-44V64.88h25.91Q1162.55,64.88,1165.8,66.54Z"/>
        <path class="cls-4" d="M1687.36,396.39A246.45,246.45,0,0,0,1715,395a177.41,177.41,0,0,0,23.71-4.23,162.79,162.79,0,0,0,21-6.8q9.85-4,19.7-9.11V293.76h-57.54a11,11,0,0,1-7.9-2.83,9.13,9.13,0,0,1-3-6.92V255.78h114V396.91a206.43,206.43,0,0,1-29.16,17.45,199.91,199.91,0,0,1-32.39,12.44,236.73,236.73,0,0,1-36.93,7.44,348.25,348.25,0,0,1-42.76,2.44q-40.43,0-74.12-13.73a170.63,170.63,0,0,1-58-38.49q-24.36-24.75-38-59.4T1500,248.85q0-42.07,13.35-76.72t38.1-59.4q24.73-24.76,59.86-38.36T1690,60.77a245.26,245.26,0,0,1,41,3.21A193.32,193.32,0,0,1,1766,73.22a164.3,164.3,0,0,1,29.93,14.62,183,183,0,0,1,25.66,19.37l-14.25,22.58q-4.41,6.93-11.41,6.93a18.51,18.51,0,0,1-9.07-2.82q-6.48-3.59-14.51-8.72a124.62,124.62,0,0,0-19.57-9.88,158.86,158.86,0,0,0-27.21-8.09q-15.67-3.33-37.19-3.33-31.35,0-56.75,10.13a120.12,120.12,0,0,0-43.28,29q-17.88,18.86-27.47,45.67t-9.59,60.17q0,34.91,10,62.23t28.11,46.31a121.49,121.49,0,0,0,43,29Q1657.3,396.4,1687.36,396.39Z"/>
        <path class="cls-4" d="M2131,64.88v40.54h-178.3V227.56h144.35v39H1952.73V392H2131v40.54H1902.2V64.88Z"/>
      </g>
      <g>
        <path class="cls-4" d="M2276.94,363.29h139.94v69.28H2189.34V58.72h87.6Z"/>
        <path class="cls-4" d="M2831,245.52q0,40.54-14.13,75.44a181.48,181.48,0,0,1-39.78,60.68q-25.65,25.78-61.81,40.41t-80.21,14.63q-44.06,0-80.34-14.63t-62.06-40.41A180.45,180.45,0,0,1,2452.78,321q-14.13-34.9-14.13-75.44t14.13-75.44a179.16,179.16,0,0,1,39.91-60.56q25.79-25.65,62.06-40.28t80.34-14.63q44.05,0,80.21,14.76t61.81,40.41a180.07,180.07,0,0,1,39.78,60.56Q2831,205.23,2831,245.52Zm-89.67,0q0-27.72-7.26-49.91T2713.23,158a90.07,90.07,0,0,0-33.3-23.61q-19.69-8.2-44.84-8.21-25.4,0-45.22,8.21A89.81,89.81,0,0,0,2556.44,158q-13.61,15.39-20.86,37.59t-7.26,49.91q0,28,7.26,50.16t20.86,37.59a88.4,88.4,0,0,0,33.43,23.48q19.83,8.08,45.22,8.08,25.14,0,44.84-8.08a88.63,88.63,0,0,0,33.3-23.48q13.61-15.39,20.86-37.59T2741.35,245.52Z"/>
        <path class="cls-4" d="M3050.78,370a150.56,150.56,0,0,0,32.13-3.08,159.23,159.23,0,0,0,26.44-8.21V302H3072q-8.3,0-13-4.36a14.47,14.47,0,0,1-4.66-11V238.85h134.24v157.8A193.55,193.55,0,0,1,3125,427.19a251.36,251.36,0,0,1-37.84,7.18,378.45,378.45,0,0,1-43.15,2.31q-41.46,0-76.71-14.5a186.29,186.29,0,0,1-61-40,183.91,183.91,0,0,1-40.43-60.55q-14.64-35-14.64-76.08,0-41.82,14-76.85a173.06,173.06,0,0,1,40-60.43q26.05-25.39,63-39.51t82.54-14.12a243.39,243.39,0,0,1,44.32,3.85A220.69,220.69,0,0,1,3133.32,69a176.92,176.92,0,0,1,32,15.91,172.67,172.67,0,0,1,25.91,20l-25.39,38.24a28.18,28.18,0,0,1-8.69,8.46,20.71,20.71,0,0,1-11,3.08q-7.77,0-16.07-5.13-10.36-6.15-19.56-10.65a120.64,120.64,0,0,0-18.79-7.31,124.14,124.14,0,0,0-20.22-4.1,199.16,199.16,0,0,0-23.84-1.29q-24.63,0-44.32,8.6a94.88,94.88,0,0,0-33.56,24.25,109.35,109.35,0,0,0-21.38,37.59q-7.51,21.93-7.51,48.88,0,29.76,8.29,52.86t22.93,39a97.34,97.34,0,0,0,34.73,24.25A113.43,113.43,0,0,0,3050.78,370Z"/>
      </g>
    </g>
  </g>
</svg>
