<svg id="Ebene_1" data-name="Ebene 1" xmlns="http://www.w3.org/2000/svg" xmlns:xlink="http://www.w3.org/1999/xlink" viewBox="0 0 3745.83 500">
  <defs>
    <style>
      .cls-1 {
        fill: none;
      }

      .cls-2 {
        clip-path: url(#clip-path);
      }

      .cls-3 {
        fill: #fff;
      }

      .cls-4 {
        fill: #d55023;
      }

      .cls-5 {
        fill: #48647b;
      }
    </style>
    <clipPath id="clip-path">
      <rect class="cls-1" x="3.54" y="-1.81" width="3744.3" height="511.37"/>
    </clipPath>
  </defs>
  <g class="cls-2">
    <polygon class="cls-3" points="3350.46 72.8 3350.46 506.62 3743.89 434.78 3743.89 2.19 3350.46 72.8"/>
    <polygon class="cls-4" points="3444.5 277.77 3523.58 277.77 3523.58 356.07 3570.78 356.07 3570.78 277.77 3649.85 277.77 3649.85 231.01 3570.78 231.01 3570.78 152.74 3523.58 152.74 3523.58 231.01 3444.5 231.01 3444.5 277.77"/>
    <g class="cls-2">
      <g>
        <path class="cls-5" d="M294.61,360.49a10.48,10.48,0,0,1,7.52,3.34l19.7,21.29a158.83,158.83,0,0,1-55.33,40.8Q234,440.55,188.1,440.55q-40.17,0-72.82-13.73a159.51,159.51,0,0,1-55.72-38.49q-23.07-24.75-35.77-59.4t-12.7-76.21q0-41.57,13.61-76.21T62.93,117a171,171,0,0,1,59-38.62q34.35-13.73,75.81-13.73,41,0,70.62,12.57a178.89,178.89,0,0,1,52.74,34.13l-16.33,22.84a17.74,17.74,0,0,1-4.14,4.23c-1.56,1.12-3.81,1.67-6.74,1.67a13.16,13.16,0,0,1-7.13-2.44q-3.76-2.43-8.94-6t-12.18-7.7a108.77,108.77,0,0,0-16.59-7.7,138,138,0,0,0-22.29-6,156.17,156.17,0,0,0-29.28-2.44q-29.81,0-54.55,10.13a122.2,122.2,0,0,0-42.63,28.87q-17.9,18.74-27.86,45.67t-10,60.3q0,34.39,10,61.33T99.6,359.59A114.56,114.56,0,0,0,140.41,388a131.65,131.65,0,0,0,50.8,9.75,207.23,207.23,0,0,0,29.8-1.93,122.91,122.91,0,0,0,24.49-6,103.72,103.72,0,0,0,21-10.39,164.5,164.5,0,0,0,19.56-15Q290.47,360.49,294.61,360.49Z"/>
        <path class="cls-5" d="M689.05,436.44H638.52V269.14H438.45v167.3H387.91V68.75h50.54v164H638.52v-164h50.53Z"/>
        <path class="cls-5" d="M1085.31,436.44h-38.88q-6.73,0-10.88-3.33a20.45,20.45,0,0,1-6.22-8.47L994.6,335.86H828l-34.73,88.78a20,20,0,0,1-6.22,8.21,16.62,16.62,0,0,1-10.88,3.59H737.26L885.75,68.75h51.06ZM842,299.94H980.61l-58.32-149.6a278,278,0,0,1-11.14-34.64q-2.85,10.53-5.57,19.37t-5.31,15.53Z"/>
        <path class="cls-5" d="M1168.1,70.41q3.24,1.68,7.39,6.8l215.1,277.12q-.78-6.66-1-12.95t-.25-12.19V68.75h44V436.44H1408a21.72,21.72,0,0,1-10-2.05,25.13,25.13,0,0,1-7.91-6.93L1175.23,150.6q.51,6.42.78,12.57t.26,11.29v262h-44.06V68.75h25.92Q1164.86,68.75,1168.1,70.41Z"/>
        <path class="cls-5" d="M1689.66,400.26a248.72,248.72,0,0,0,27.6-1.41,177.13,177.13,0,0,0,23.71-4.23,162.29,162.29,0,0,0,21-6.8q9.86-4,19.7-9.11V297.63h-57.53a11,11,0,0,1-7.91-2.83,9.15,9.15,0,0,1-3-6.92V259.65h114V400.78a206.9,206.9,0,0,1-29.15,17.45,200.38,200.38,0,0,1-32.4,12.44,236.73,236.73,0,0,1-36.93,7.44,348.14,348.14,0,0,1-42.76,2.44q-40.42,0-74.12-13.73a170.72,170.72,0,0,1-58.05-38.49q-24.36-24.75-38-59.4t-13.6-76.21q0-42.08,13.34-76.72t38.1-59.4q24.75-24.76,59.87-38.36t78.65-13.6a245.26,245.26,0,0,1,41,3.21,193.92,193.92,0,0,1,35.11,9.23,165.08,165.08,0,0,1,29.94,14.63,183.5,183.5,0,0,1,25.65,19.37l-14.25,22.58q-4.41,6.93-11.4,6.93a18.48,18.48,0,0,1-9.07-2.82q-6.48-3.59-14.52-8.73a124.51,124.51,0,0,0-19.56-9.87,158.86,158.86,0,0,0-27.21-8.09q-15.69-3.33-37.19-3.33-31.37,0-56.76,10.13a120.08,120.08,0,0,0-43.28,29q-17.88,18.85-27.47,45.67t-9.59,60.17q0,34.91,10,62.23t28.12,46.31a121.45,121.45,0,0,0,43,29Q1659.59,400.27,1689.66,400.26Z"/>
        <path class="cls-5" d="M2133.34,68.75v40.54H1955V231.43h144.36v39H1955V395.9h178.31v40.54H1904.5V68.75Z"/>
      </g>
      <g>
        <path class="cls-5" d="M2279.24,367.16h140v69.28H2191.64V62.59h87.6Z"/>
        <path class="cls-5" d="M2833.32,249.39q0,40.55-14.12,75.44a181.78,181.78,0,0,1-39.78,60.68q-25.66,25.78-61.81,40.41t-80.21,14.63q-44.07,0-80.34-14.63T2495,385.51a180.6,180.6,0,0,1-39.91-60.68Q2441,289.93,2441,249.39T2455.08,174A179.31,179.31,0,0,1,2495,113.39q25.78-25.65,62.07-40.28t80.34-14.63q44.05,0,80.21,14.76t61.81,40.41a180.37,180.37,0,0,1,39.78,60.56Q2833.32,209.1,2833.32,249.39Zm-89.67,0q0-27.72-7.25-49.91t-20.87-37.59a90,90,0,0,0-33.3-23.61q-19.7-8.21-44.83-8.21-25.41,0-45.23,8.21a89.78,89.78,0,0,0-33.43,23.61q-13.6,15.39-20.86,37.59t-7.26,49.91q0,28,7.26,50.16t20.86,37.59a88.48,88.48,0,0,0,33.43,23.48q19.83,8.08,45.23,8.08,25.13,0,44.83-8.08a88.63,88.63,0,0,0,33.3-23.48q13.6-15.39,20.87-37.59T2743.65,249.39Z"/>
        <path class="cls-5" d="M3053.08,373.83a150.77,150.77,0,0,0,32.14-3.07,158.19,158.19,0,0,0,26.43-8.22v-56.7h-37.32q-8.29,0-13-4.36a14.47,14.47,0,0,1-4.66-11V242.72H3191v157.8a193.27,193.27,0,0,1-63.62,30.53,250.11,250.11,0,0,1-37.84,7.19,378.45,378.45,0,0,1-43.15,2.31q-41.46,0-76.71-14.5a186.29,186.29,0,0,1-61-40,184.06,184.06,0,0,1-40.43-60.55q-14.64-35-14.64-76.08,0-41.82,14-76.85a173,173,0,0,1,40-60.43q26.05-25.41,63-39.52t82.54-14.11a242.51,242.51,0,0,1,44.32,3.85,219.8,219.8,0,0,1,38.22,10.52,176.59,176.59,0,0,1,32,15.91,173.28,173.28,0,0,1,25.92,20L3168.15,147a28,28,0,0,1-8.68,8.46,20.74,20.74,0,0,1-11,3.08q-7.77,0-16.07-5.13-10.37-6.15-19.56-10.65a120.64,120.64,0,0,0-18.79-7.31,125,125,0,0,0-20.22-4.11,201.41,201.41,0,0,0-23.84-1.28q-24.61,0-44.31,8.6a94.83,94.83,0,0,0-33.57,24.25,109.35,109.35,0,0,0-21.38,37.59q-7.52,21.93-7.51,48.88,0,29.76,8.29,52.86t22.94,39a97.3,97.3,0,0,0,34.72,24.25A113.42,113.42,0,0,0,3053.08,373.83Z"/>
      </g>
    </g>
  </g>
</svg>
